<?xml version="1.0" encoding="UTF-8"?>
<!DOCTYPE svg PUBLIC "-//W3C//DTD SVG 1.1//EN" "http://www.w3.org/Graphics/SVG/1.1/DTD/svg11.dtd">
<svg xmlns="http://www.w3.org/2000/svg" version="1.1" width="512px" height="512px" style="shape-rendering:geometricPrecision; text-rendering:geometricPrecision; image-rendering:optimizeQuality; fill-rule:evenodd; clip-rule:evenodd" xmlns:xlink="http://www.w3.org/1999/xlink">
<g><path style="opacity:0.931" fill="#000000" d="M 210.5,-0.5 C 224.5,-0.5 238.5,-0.5 252.5,-0.5C 341.018,10.8761 404.851,56.5427 444,136.5C 464.506,183.715 469.173,232.381 458,282.5C 454.205,285.803 450.038,286.303 445.5,284C 444.299,283.097 443.465,281.931 443,280.5C 454.819,216.588 442.486,157.922 406,104.5C 353.484,37.3122 284.651,8.47885 199.5,18C 111.897,34.6035 53.7303,85.1035 25,169.5C 3.62519,252.67 22.6252,325.003 82,386.5C 91.7816,322.887 126.948,280.22 187.5,258.5C 147.498,230.321 135.665,192.988 152,146.5C 172.2,107.98 204.034,91.4804 247.5,97C 283.204,104.779 306.038,126.279 316,161.5C 323.167,197.965 312.667,228.131 284.5,252C 281.167,254 277.833,256 274.5,258C 307.528,269.035 334.361,288.535 355,316.5C 358.887,327.935 355.054,332.435 343.5,330C 306.904,280.24 258.237,261.574 197.5,274C 148.166,289.335 116.332,321.835 102,371.5C 99.3457,381.388 98.5123,391.388 99.5,401.5C 152.714,441.468 212.047,454.968 277.5,442C 289.098,439.06 300.598,435.893 312,432.5C 319.783,433.726 322.116,438.059 319,445.5C 317.786,447.049 316.286,448.215 314.5,449C 231.71,477.145 155.377,465.145 85.5,413C 35.4689,371.113 6.80226,317.613 -0.5,252.5C -0.5,238.5 -0.5,224.5 -0.5,210.5C 11.1226,119.741 58.4559,55.2409 141.5,17C 163.803,7.91244 186.803,2.0791 210.5,-0.5 Z M 224.5,112.5 C 266.872,112.427 292.372,133.094 301,174.5C 302.61,210.539 286.777,235.373 253.5,249C 219.574,257.612 192.407,247.779 172,219.5C 154.391,185.09 159.557,154.59 187.5,128C 198.57,119.594 210.903,114.428 224.5,112.5 Z"/></g>
<g><path style="opacity:0.966" fill="#000000" d="M 511.5,403.5 C 511.5,425.833 511.5,448.167 511.5,470.5C 505.833,492.167 492.167,505.833 470.5,511.5C 439.167,511.5 407.833,511.5 376.5,511.5C 354.848,506.014 341.348,492.347 336,470.5C 335.031,447.103 335.364,423.77 337,400.5C 343.115,387.69 353.282,382.023 367.5,383.5C 367.333,369.163 367.5,354.829 368,340.5C 375.169,311.498 393.669,296.164 423.5,294.5C 453.331,296.164 471.831,311.498 479,340.5C 479.5,354.829 479.667,369.163 479.5,383.5C 495.363,382.088 506.03,388.754 511.5,403.5 Z M 417.5,311.5 C 440.288,310.629 455.121,320.962 462,342.5C 463.311,356.132 463.811,369.799 463.5,383.5C 436.833,383.5 410.167,383.5 383.5,383.5C 383.333,372.828 383.5,362.161 384,351.5C 384.692,336.607 391.192,325.107 403.5,317C 408.046,314.545 412.712,312.712 417.5,311.5 Z M 363.5,399.5 C 403.501,399.333 443.501,399.5 483.5,400C 490.667,400.5 494.5,404.333 495,411.5C 495.89,430.531 495.557,449.531 494,468.5C 489.025,485.14 477.858,493.973 460.5,495C 433.138,495.928 405.805,495.594 378.5,494C 361.86,489.025 353.027,477.858 352,460.5C 351.333,444.167 351.333,427.833 352,411.5C 352.678,404.324 356.511,400.324 363.5,399.5 Z M 420.5,428.5 C 429.823,428.741 431.823,432.574 426.5,440C 417.096,440.141 415.096,436.308 420.5,428.5 Z"/></g>
<g><path style="opacity:0.943" fill="#000000" d="M 417.5,411.5 C 437.979,410.478 447.479,420.145 446,440.5C 444.11,448.288 439.444,453.622 432,456.5C 431.667,462.833 431.333,469.167 431,475.5C 429.471,478.516 426.971,479.849 423.5,479.5C 421.074,479.596 418.907,478.93 417,477.5C 415.74,470.606 415.074,463.606 415,456.5C 400.513,448.367 396.846,436.701 404,421.5C 407.531,416.795 412.031,413.462 417.5,411.5 Z M 420.5,428.5 C 415.096,436.308 417.096,440.141 426.5,440C 431.823,432.574 429.823,428.741 420.5,428.5 Z"/></g>
</svg>
