<?xml version="1.0" encoding="UTF-8"?>
<!DOCTYPE svg PUBLIC "-//W3C//DTD SVG 1.1//EN" "http://www.w3.org/Graphics/SVG/1.1/DTD/svg11.dtd">
<svg xmlns="http://www.w3.org/2000/svg" version="1.1" width="512px" height="512px" style="shape-rendering:geometricPrecision; text-rendering:geometricPrecision; image-rendering:optimizeQuality; fill-rule:evenodd; clip-rule:evenodd" xmlns:xlink="http://www.w3.org/1999/xlink">
<g><path style="opacity:0.987" fill="#262828" d="M 44.5,3.5 C 75.5339,3.73287 106.367,3.73287 137,3.5C 149.53,4.1198 160.697,8.28646 170.5,16C 177.833,24.6667 185.833,32.6667 194.5,40C 198.682,43.09 203.349,45.09 208.5,46C 214.5,46.5 220.5,47 226.5,47.5C 282.786,46.5273 339.12,46.3606 395.5,47C 413.341,48.8407 423.174,58.6741 425,76.5C 425.426,86.1737 425.259,95.8403 424.5,105.5C 443.17,105.333 461.836,105.5 480.5,106C 495.36,106.873 504.86,114.373 509,128.5C 509.958,141.481 510.458,154.481 510.5,167.5C 509.751,238.831 509.251,310.164 509,381.5C 504.113,404.221 490.28,417.555 467.5,421.5C 467.667,442.836 467.5,464.169 467,485.5C 465.573,496.26 459.74,503.426 449.5,507C 349.167,507.667 248.833,507.667 148.5,507C 138.966,505.796 132.8,500.629 130,491.5C 129.5,468.502 129.333,445.502 129.5,422.5C 101.831,422.667 74.1647,422.5 46.5,422C 23.5407,420.362 9.04074,408.529 3,386.5C 1.34481,267.529 1.01148,148.529 2,29.5C 5.56686,16.2676 14.0669,8.10092 27.5,5C 33.3482,4.82716 39.0149,4.32716 44.5,3.5 Z M 53.5,11.5 C 57.1667,11.5 60.8333,11.5 64.5,11.5C 56.8361,16.668 48.8361,21.3347 40.5,25.5C 44.8333,20.8333 49.1667,16.1667 53.5,11.5 Z M 84.5,11.5 C 87.1667,11.5 89.8333,11.5 92.5,11.5C 84.8361,16.668 76.8361,21.3347 68.5,25.5C 73.5372,20.4607 78.8705,15.794 84.5,11.5 Z M 132.5,11.5 C 134.216,11.6287 135.883,11.962 137.5,12.5C 129.168,18.0019 120.501,23.0019 111.5,27.5C 118.5,22.1667 125.5,16.8333 132.5,11.5 Z M 151.5,16.5 C 151.5,17.1667 151.833,17.5 152.5,17.5C 150.664,19.588 148.331,20.9213 145.5,21.5C 147.091,19.3674 149.091,17.7007 151.5,16.5 Z M 161.5,24.5 C 161.833,25.1667 162.167,25.8333 162.5,26.5C 158.473,28.5133 154.473,30.5133 150.5,32.5C 153.952,29.6007 157.618,26.9341 161.5,24.5 Z M 150.5,32.5 C 150.027,33.9063 149.027,34.573 147.5,34.5C 147.973,33.0937 148.973,32.427 150.5,32.5 Z M 17.5,33.5 C 16.8333,34.8333 15.8333,35.8333 14.5,36.5C 14.5,35.8333 14.5,35.1667 14.5,34.5C 15.391,33.8902 16.391,33.5569 17.5,33.5 Z M 169.5,34.5 C 171.167,35.5 172.5,36.8333 173.5,38.5C 157.072,48.2621 140.405,57.5954 123.5,66.5C 138.447,55.353 153.78,44.6863 169.5,34.5 Z M 20.5,49.5 C 19.1092,51.8903 17.1092,53.5569 14.5,54.5C 14.5,53.8333 14.5,53.1667 14.5,52.5C 16.2163,50.9752 18.2163,49.9752 20.5,49.5 Z M 189.5,50.5 C 190.833,50.8333 192.167,51.1667 193.5,51.5C 184.5,57.3357 175.167,62.6691 165.5,67.5C 173.5,61.8333 181.5,56.1667 189.5,50.5 Z M 208.5,54.5 C 211.833,54.5 215.167,54.5 218.5,54.5C 196.834,67.6687 174.834,80.3354 152.5,92.5C 170.893,79.4421 189.56,66.7754 208.5,54.5 Z M 238.5,54.5 C 242.5,54.5 246.5,54.5 250.5,54.5C 222.665,71.588 194.331,87.9213 165.5,103.5C 189.661,86.9188 213.994,70.5855 238.5,54.5 Z M 291.5,54.5 C 292.5,54.5 293.5,54.5 294.5,54.5C 293.486,55.6737 292.153,56.3404 290.5,56.5C 290.833,55.8333 291.167,55.1667 291.5,54.5 Z M 313.5,54.5 C 316.167,54.5 318.833,54.5 321.5,54.5C 299.834,67.6687 277.834,80.3354 255.5,92.5C 274.833,79.8333 294.167,67.1667 313.5,54.5 Z M 341.5,54.5 C 345.833,54.5 350.167,54.5 354.5,54.5C 325.664,71.7522 296.664,88.7522 267.5,105.5C 265.833,105.5 264.167,105.5 262.5,105.5C 288.663,88.2508 314.997,71.2508 341.5,54.5 Z M 393.5,55.5 C 395.403,55.7959 397.07,56.4625 398.5,57.5C 374.995,71.0866 351.329,84.4199 327.5,97.5C 349.5,83.5 371.5,69.5 393.5,55.5 Z M 290.5,56.5 C 290.027,57.9063 289.027,58.573 287.5,58.5C 287.973,57.0937 288.973,56.427 290.5,56.5 Z M 406.5,64.5 C 406.833,65.1667 407.167,65.8333 407.5,66.5C 397.5,71.8333 387.5,77.1667 377.5,82.5C 386.655,75.7516 396.322,69.7516 406.5,64.5 Z M 123.5,66.5 C 123.027,67.9063 122.027,68.573 120.5,68.5C 120.973,67.0937 121.973,66.427 123.5,66.5 Z M 25.5,74.5 C 22.3733,77.8979 18.7066,80.5646 14.5,82.5C 14.5,81.8333 14.5,81.1667 14.5,80.5C 18.0337,78.2336 21.7004,76.2336 25.5,74.5 Z M 377.5,82.5 C 376.341,84.2503 374.674,85.2503 372.5,85.5C 373.659,83.7497 375.326,82.7497 377.5,82.5 Z M 372.5,85.5 C 371.341,87.2503 369.674,88.2503 367.5,88.5C 368.659,86.7497 370.326,85.7497 372.5,85.5 Z M 255.5,92.5 C 254.341,94.2503 252.674,95.2503 250.5,95.5C 251.659,93.7497 253.326,92.7497 255.5,92.5 Z M 59.5,97.5 C 59.0269,98.9063 58.0269,99.573 56.5,99.5C 56.9731,98.0937 57.9731,97.427 59.5,97.5 Z M 325.5,98.5 C 325.027,99.9063 324.027,100.573 322.5,100.5C 322.973,99.0937 323.973,98.427 325.5,98.5 Z M 56.5,99.5 C 42.8565,109.657 28.8565,119.324 14.5,128.5C 14.5,126.5 14.5,124.5 14.5,122.5C 28.5,114.833 42.5,107.167 56.5,99.5 Z M 410.5,99.5 C 410.5,101.5 410.5,103.5 410.5,105.5C 407.5,105.5 404.5,105.5 401.5,105.5C 404.291,103.265 407.291,101.265 410.5,99.5 Z M 165.5,103.5 C 165.167,104.167 164.833,104.833 164.5,105.5C 163.833,105.5 163.167,105.5 162.5,105.5C 162.973,104.094 163.973,103.427 165.5,103.5 Z M 21.5,105.5 C 21.0269,106.906 20.0269,107.573 18.5,107.5C 18.9731,106.094 19.9731,105.427 21.5,105.5 Z M 18.5,107.5 C 17.5637,108.974 16.2303,109.974 14.5,110.5C 14.5,109.833 14.5,109.167 14.5,108.5C 15.8333,108.167 17.1667,107.833 18.5,107.5 Z M 245.5,115.5 C 246.5,115.5 247.5,115.5 248.5,115.5C 246.664,117.588 244.331,118.921 241.5,119.5C 242.833,118.167 244.167,116.833 245.5,115.5 Z M 383.5,115.5 C 385.167,115.5 386.833,115.5 388.5,115.5C 377.763,122.225 366.763,128.558 355.5,134.5C 364.833,128.167 374.167,121.833 383.5,115.5 Z M 414.5,115.5 C 416.5,115.5 418.5,115.5 420.5,115.5C 411.115,121.53 401.449,127.197 391.5,132.5C 390.711,132.217 390.044,131.717 389.5,131C 398.006,125.97 406.339,120.804 414.5,115.5 Z M 441.5,115.5 C 444.5,115.5 447.5,115.5 450.5,115.5C 417.763,134.892 384.763,153.892 351.5,172.5C 381.126,153.014 411.126,134.014 441.5,115.5 Z M 470.5,115.5 C 471.833,115.5 473.167,115.5 474.5,115.5C 460.666,124.587 446.333,132.921 431.5,140.5C 444.33,131.917 457.33,123.584 470.5,115.5 Z M 487.5,120.5 C 488.5,120.833 489.167,121.5 489.5,122.5C 471.301,133.099 452.968,143.432 434.5,153.5C 451.879,142.138 469.545,131.138 487.5,120.5 Z M 353.5,135.5 C 353.027,136.906 352.027,137.573 350.5,137.5C 350.973,136.094 351.973,135.427 353.5,135.5 Z M 36.5,139.5 C 29.5505,144.982 22.2172,149.982 14.5,154.5C 14.5,153.5 14.5,152.5 14.5,151.5C 21.8604,147.488 29.1937,143.488 36.5,139.5 Z M 62.5,139.5 C 46.8523,150.66 30.8523,161.327 14.5,171.5C 14.5,169.833 14.5,168.167 14.5,166.5C 30.5171,157.472 46.5171,148.472 62.5,139.5 Z M 429.5,141.5 C 429.027,142.906 428.027,143.573 426.5,143.5C 426.973,142.094 427.973,141.427 429.5,141.5 Z M 424.5,144.5 C 424.027,145.906 423.027,146.573 421.5,146.5C 421.973,145.094 422.973,144.427 424.5,144.5 Z M 80.5,146.5 C 80.0269,147.906 79.0269,148.573 77.5,148.5C 77.9731,147.094 78.9731,146.427 80.5,146.5 Z M 77.5,148.5 C 56.7089,162.735 35.7089,176.735 14.5,190.5C 14.5,188.167 14.5,185.833 14.5,183.5C 35.3389,171.58 56.3389,159.913 77.5,148.5 Z M 434.5,153.5 C 433.341,155.25 431.674,156.25 429.5,156.5C 430.659,154.75 432.326,153.75 434.5,153.5 Z M 496.5,163.5 C 496.5,166.833 496.5,170.167 496.5,173.5C 476.26,184.405 456.26,195.739 436.5,207.5C 431.5,207.5 426.5,207.5 421.5,207.5C 446.3,192.596 471.3,177.929 496.5,163.5 Z M 349.5,173.5 C 349.027,174.906 348.027,175.573 346.5,175.5C 346.973,174.094 347.973,173.427 349.5,173.5 Z M 496.5,184.5 C 496.5,187.167 496.5,189.833 496.5,192.5C 484.007,198.912 471.674,205.579 459.5,212.5C 458.167,211.833 456.833,211.167 455.5,210.5C 469.144,201.867 482.811,193.201 496.5,184.5 Z M 69.5,196.5 C 69.0269,197.906 68.0269,198.573 66.5,198.5C 66.9731,197.094 67.9731,196.427 69.5,196.5 Z M 66.5,198.5 C 65.3406,200.25 63.674,201.25 61.5,201.5C 62.6594,199.75 64.326,198.75 66.5,198.5 Z M 61.5,201.5 C 46.378,212.235 30.7113,222.235 14.5,231.5C 14.5,230.167 14.5,228.833 14.5,227.5C 30.0058,218.58 45.6724,209.913 61.5,201.5 Z M 86.5,202.5 C 86.5,203.5 86.5,204.5 86.5,205.5C 62.5175,220.473 38.5175,235.473 14.5,250.5C 14.5,248.167 14.5,245.833 14.5,243.5C 38.5171,229.806 62.5171,216.139 86.5,202.5 Z M 496.5,228.5 C 496.5,229.167 496.5,229.833 496.5,230.5C 494.5,231.167 492.5,231.833 490.5,232.5C 492.147,230.674 494.147,229.34 496.5,228.5 Z M 490.5,232.5 C 489.341,234.25 487.674,235.25 485.5,235.5C 486.659,233.75 488.326,232.75 490.5,232.5 Z M 483.5,236.5 C 483.027,237.906 482.027,238.573 480.5,238.5C 480.973,237.094 481.973,236.427 483.5,236.5 Z M 76.5,239.5 C 75.3406,241.25 73.674,242.25 71.5,242.5C 72.6594,240.75 74.326,239.75 76.5,239.5 Z M 496.5,241.5 C 496.5,242.833 496.5,244.167 496.5,245.5C 486.998,251.419 477.331,257.086 467.5,262.5C 467.5,261.833 467.5,261.167 467.5,260.5C 476.959,253.931 486.626,247.598 496.5,241.5 Z M 71.5,242.5 C 52.705,254.736 33.705,266.736 14.5,278.5C 14.5,277.167 14.5,275.833 14.5,274.5C 33.3655,263.568 52.3655,252.901 71.5,242.5 Z M 129.5,261.5 C 129.5,262.167 129.5,262.833 129.5,263.5C 119.97,269.43 110.303,275.097 100.5,280.5C 100.5,279.5 100.5,278.5 100.5,277.5C 110.15,272.195 119.816,266.862 129.5,261.5 Z M 496.5,269.5 C 496.5,271.5 496.5,273.5 496.5,275.5C 486.967,281.099 477.3,286.433 467.5,291.5C 467.5,290.5 467.5,289.5 467.5,288.5C 476.996,281.918 486.662,275.585 496.5,269.5 Z M 47.5,271.5 C 47.0269,272.906 46.0269,273.573 44.5,273.5C 44.9731,272.094 45.9731,271.427 47.5,271.5 Z M 44.5,273.5 C 34.8742,280.319 24.8742,286.653 14.5,292.5C 14.5,291.5 14.5,290.5 14.5,289.5C 24.5,284.167 34.5,278.833 44.5,273.5 Z M 87.5,285.5 C 87.5,286.833 87.5,288.167 87.5,289.5C 63.3061,304.762 38.9727,319.762 14.5,334.5C 14.5,332.167 14.5,329.833 14.5,327.5C 38.8333,313.5 63.1667,299.5 87.5,285.5 Z M 496.5,287.5 C 496.5,288.833 496.5,290.167 496.5,291.5C 486.967,297.099 477.3,302.433 467.5,307.5C 467.5,307.167 467.5,306.833 467.5,306.5C 476.959,299.931 486.626,293.598 496.5,287.5 Z M 496.5,303.5 C 496.5,304.5 496.5,305.5 496.5,306.5C 488.301,311.432 479.968,316.099 471.5,320.5C 479.536,314.475 487.87,308.809 496.5,303.5 Z M 85.5,317.5 C 62.3444,332.915 38.6777,347.582 14.5,361.5C 14.5,360.167 14.5,358.833 14.5,357.5C 38.1667,344.167 61.8333,330.833 85.5,317.5 Z M 496.5,319.5 C 496.5,321.167 496.5,322.833 496.5,324.5C 486.7,329.567 477.033,334.901 467.5,340.5C 467.5,339.833 467.5,339.167 467.5,338.5C 477.024,331.908 486.691,325.574 496.5,319.5 Z M 496.5,349.5 C 496.5,349.833 496.5,350.167 496.5,350.5C 495.609,351.11 494.609,351.443 493.5,351.5C 493.973,350.094 494.973,349.427 496.5,349.5 Z M 52.5,352.5 C 51.3406,354.25 49.674,355.25 47.5,355.5C 48.6594,353.75 50.326,352.75 52.5,352.5 Z M 47.5,355.5 C 36.7902,362.861 25.7902,369.861 14.5,376.5C 14.5,375.5 14.5,374.5 14.5,373.5C 25.3399,367.246 36.3399,361.246 47.5,355.5 Z M 65.5,359.5 C 50.378,370.235 34.7113,380.235 18.5,389.5C 17.8902,388.609 17.5569,387.609 17.5,386.5C 33.5171,377.472 49.5171,368.472 65.5,359.5 Z M 129.5,375.5 C 129.5,378.833 129.5,382.167 129.5,385.5C 120.167,390.5 110.833,395.5 101.5,400.5C 107.647,394.497 114.147,388.83 121,383.5C 121.49,382.207 121.657,380.873 121.5,379.5C 124.14,378.18 126.807,376.847 129.5,375.5 Z M 62.5,376.5 C 62.0269,377.906 61.0269,378.573 59.5,378.5C 59.9731,377.094 60.9731,376.427 62.5,376.5 Z M 59.5,378.5 C 58.3406,380.25 56.674,381.25 54.5,381.5C 55.6594,379.75 57.326,378.75 59.5,378.5 Z M 495.5,380.5 C 495.5,381.833 495.5,383.167 495.5,384.5C 492.45,386.692 489.117,388.358 485.5,389.5C 488.808,386.529 492.141,383.529 495.5,380.5 Z M 54.5,381.5 C 45.3545,388.576 35.6879,394.91 25.5,400.5C 25.1667,399.833 24.8333,399.167 24.5,398.5C 34.1675,392.331 44.1675,386.664 54.5,381.5 Z M 129.5,396.5 C 129.5,398.833 129.5,401.167 129.5,403.5C 124.233,406.11 119.233,409.11 114.5,412.5C 110.167,412.5 105.833,412.5 101.5,412.5C 110.571,406.775 119.904,401.441 129.5,396.5 Z M 52.5,397.5 C 52.0269,398.906 51.0269,399.573 49.5,399.5C 49.9731,398.094 50.9731,397.427 52.5,397.5 Z M 49.5,399.5 C 45.4654,402.857 41.1321,405.857 36.5,408.5C 35.5084,408.672 34.8417,408.338 34.5,407.5C 39.3682,404.566 44.3682,401.9 49.5,399.5 Z M 383.5,423.5 C 381.167,425.5 378.833,427.5 376.5,429.5C 375.167,429.5 373.833,429.5 372.5,429.5C 375.999,427.25 379.665,425.25 383.5,423.5 Z M 361.5,439.5 C 361.833,439.5 362.167,439.5 362.5,439.5C 361.167,441.833 361.167,444.167 362.5,446.5C 352.967,452.099 343.3,457.433 333.5,462.5C 342.833,454.833 352.167,447.167 361.5,439.5 Z M 195.5,439.5 C 196.167,439.5 196.833,439.5 197.5,439.5C 188.171,446.503 178.171,452.503 167.5,457.5C 170.5,453.833 173.833,450.5 177.5,447.5C 184.212,446.478 190.212,443.812 195.5,439.5 Z M 218.5,440.5 C 218.5,442.167 218.5,443.833 218.5,445.5C 212.795,449.353 206.795,452.686 200.5,455.5C 206.091,450.034 212.091,445.034 218.5,440.5 Z M 310.5,440.5 C 309.341,442.25 307.674,443.25 305.5,443.5C 305.833,442.833 306.167,442.167 306.5,441.5C 307.833,441.167 309.167,440.833 310.5,440.5 Z M 331.5,440.5 C 332.167,440.5 332.833,440.5 333.5,440.5C 333.5,441.833 333.5,443.167 333.5,444.5C 327.298,448.101 320.964,451.434 314.5,454.5C 320.167,449.833 325.833,445.167 331.5,440.5 Z M 415.5,440.5 C 415.5,441.833 415.5,443.167 415.5,444.5C 409.965,447.767 404.298,450.767 398.5,453.5C 403.618,448.442 409.285,444.109 415.5,440.5 Z M 435.5,446.5 C 436.167,446.833 436.833,447.167 437.5,447.5C 434.001,449.75 430.335,451.75 426.5,453.5C 429.19,450.815 432.19,448.482 435.5,446.5 Z M 453.5,451.5 C 453.5,452.167 453.5,452.833 453.5,453.5C 452.833,453.5 452.167,453.5 451.5,453.5C 451.833,452.5 452.5,451.833 453.5,451.5 Z M 398.5,453.5 C 398.027,454.906 397.027,455.573 395.5,455.5C 395.973,454.094 396.973,453.427 398.5,453.5 Z M 314.5,454.5 C 314.027,455.906 313.027,456.573 311.5,456.5C 311.973,455.094 312.973,454.427 314.5,454.5 Z M 151.5,459.5 C 148.833,462.833 145.833,465.833 142.5,468.5C 142.5,466.833 142.5,465.167 142.5,463.5C 145.5,462.167 148.5,460.833 151.5,459.5 Z M 453.5,468.5 C 453.5,469.833 453.5,471.167 453.5,472.5C 451.117,474.358 448.45,475.692 445.5,476.5C 447.833,473.5 450.5,470.833 453.5,468.5 Z M 159.5,474.5 C 154.206,478.823 148.873,483.156 143.5,487.5C 143.5,486.167 143.5,484.833 143.5,483.5C 148.502,479.997 153.835,476.997 159.5,474.5 Z M 300.5,475.5 C 291.167,483.167 281.833,490.833 272.5,498.5C 268.5,498.5 264.5,498.5 260.5,498.5C 273.312,490.042 286.646,482.375 300.5,475.5 Z M 426.5,480.5 C 420.806,486.86 414.806,492.86 408.5,498.5C 404.167,498.5 399.833,498.5 395.5,498.5C 405.334,491.746 415.667,485.746 426.5,480.5 Z M 343.5,481.5 C 343.027,482.906 342.027,483.573 340.5,483.5C 340.973,482.094 341.973,481.427 343.5,481.5 Z M 259.5,482.5 C 253.167,487.833 246.833,493.167 240.5,498.5C 237.5,498.5 234.5,498.5 231.5,498.5C 240.5,492.664 249.833,487.331 259.5,482.5 Z M 340.5,483.5 C 334.5,488.5 328.5,493.5 322.5,498.5C 319.833,498.5 317.167,498.5 314.5,498.5C 322.832,492.998 331.499,487.998 340.5,483.5 Z M 368.5,483.5 C 362.5,488.5 356.5,493.5 350.5,498.5C 347.833,498.5 345.167,498.5 342.5,498.5C 350.832,492.998 359.499,487.998 368.5,483.5 Z M 387.5,488.5 C 383.5,491.833 379.5,495.167 375.5,498.5C 373.833,498.5 372.167,498.5 370.5,498.5C 375.665,494.414 381.332,491.08 387.5,488.5 Z M 218.5,492.5 C 216.353,494.737 214.02,496.737 211.5,498.5C 210.5,498.5 209.5,498.5 208.5,498.5C 211.494,496 214.827,494 218.5,492.5 Z"/></g>
<g><path style="opacity:0.974" fill="#29a0b4" d="M 53.5,11.5 C 49.1667,16.1667 44.8333,20.8333 40.5,25.5C 48.8361,21.3347 56.8361,16.668 64.5,11.5C 71.1667,11.5 77.8333,11.5 84.5,11.5C 78.8705,15.794 73.5372,20.4607 68.5,25.5C 76.8361,21.3347 84.8361,16.668 92.5,11.5C 99.1667,11.5 105.833,11.5 112.5,11.5C 112.833,12.8333 113.167,12.8333 113.5,11.5C 119.833,11.5 126.167,11.5 132.5,11.5C 125.5,16.8333 118.5,22.1667 111.5,27.5C 120.501,23.0019 129.168,18.0019 137.5,12.5C 142.713,12.2998 147.38,13.6331 151.5,16.5C 149.091,17.7007 147.091,19.3674 145.5,21.5C 148.331,20.9213 150.664,19.588 152.5,17.5C 156.363,18.6936 159.363,21.027 161.5,24.5C 157.618,26.9341 153.952,29.6007 150.5,32.5C 154.473,30.5133 158.473,28.5133 162.5,26.5C 166.274,27.9382 168.607,30.6049 169.5,34.5C 153.78,44.6863 138.447,55.353 123.5,66.5C 140.405,57.5954 157.072,48.2621 173.5,38.5C 178.842,42.5026 184.175,46.5026 189.5,50.5C 181.5,56.1667 173.5,61.8333 165.5,67.5C 175.167,62.6691 184.5,57.3357 193.5,51.5C 198.322,53.2877 203.322,54.2877 208.5,54.5C 189.56,66.7754 170.893,79.4421 152.5,92.5C 174.834,80.3354 196.834,67.6687 218.5,54.5C 225.167,54.5 231.833,54.5 238.5,54.5C 213.994,70.5855 189.661,86.9188 165.5,103.5C 163.973,103.427 162.973,104.094 162.5,105.5C 146.163,105.333 129.83,105.5 113.5,106C 95.4735,111.522 86.4735,123.689 86.5,142.5C 85.8333,142.5 85.5,142.833 85.5,143.5C 84.5084,143.328 83.8417,143.662 83.5,144.5C 82.8333,144.5 82.5,144.833 82.5,145.5C 81.5084,145.328 80.8417,145.662 80.5,146.5C 78.9731,146.427 77.9731,147.094 77.5,148.5C 56.3389,159.913 35.3389,171.58 14.5,183.5C 14.5,179.5 14.5,175.5 14.5,171.5C 30.8523,161.327 46.8523,150.66 62.5,139.5C 46.5171,148.472 30.5171,157.472 14.5,166.5C 14.5,162.5 14.5,158.5 14.5,154.5C 22.2172,149.982 29.5505,144.982 36.5,139.5C 29.1937,143.488 21.8604,147.488 14.5,151.5C 14.5,143.833 14.5,136.167 14.5,128.5C 28.8565,119.324 42.8565,109.657 56.5,99.5C 42.5,107.167 28.5,114.833 14.5,122.5C 14.5,118.5 14.5,114.5 14.5,110.5C 16.2303,109.974 17.5637,108.974 18.5,107.5C 17.1667,107.833 15.8333,108.167 14.5,108.5C 14.5,104.5 14.5,100.5 14.5,96.5C 15.8333,96.1667 15.8333,95.8333 14.5,95.5C 14.5,91.1667 14.5,86.8333 14.5,82.5C 18.7066,80.5646 22.3733,77.8979 25.5,74.5C 21.7004,76.2336 18.0337,78.2336 14.5,80.5C 14.5,71.8333 14.5,63.1667 14.5,54.5C 17.1092,53.5569 19.1092,51.8903 20.5,49.5C 18.2163,49.9752 16.2163,50.9752 14.5,52.5C 13.1979,47.2663 13.1979,41.9329 14.5,36.5C 15.8333,35.8333 16.8333,34.8333 17.5,33.5C 16.391,33.5569 15.391,33.8902 14.5,34.5C 14.1213,21.5635 20.1213,13.5635 32.5,10.5C 39.5822,10.3126 46.5822,10.6459 53.5,11.5 Z M 53.5,11.5 C 57.1667,11.5 60.8333,11.5 64.5,11.5C 56.8361,16.668 48.8361,21.3347 40.5,25.5C 44.8333,20.8333 49.1667,16.1667 53.5,11.5 Z M 84.5,11.5 C 87.1667,11.5 89.8333,11.5 92.5,11.5C 84.8361,16.668 76.8361,21.3347 68.5,25.5C 73.5372,20.4607 78.8705,15.794 84.5,11.5 Z M 150.5,32.5 C 150.027,33.9063 149.027,34.573 147.5,34.5C 147.973,33.0937 148.973,32.427 150.5,32.5 Z M 208.5,54.5 C 211.833,54.5 215.167,54.5 218.5,54.5C 196.834,67.6687 174.834,80.3354 152.5,92.5C 170.893,79.4421 189.56,66.7754 208.5,54.5 Z M 123.5,66.5 C 123.027,67.9063 122.027,68.573 120.5,68.5C 120.973,67.0937 121.973,66.427 123.5,66.5 Z M 59.5,97.5 C 59.0269,98.9063 58.0269,99.573 56.5,99.5C 56.9731,98.0937 57.9731,97.427 59.5,97.5 Z M 21.5,105.5 C 21.0269,106.906 20.0269,107.573 18.5,107.5C 18.9731,106.094 19.9731,105.427 21.5,105.5 Z"/></g>
<g><path style="opacity:0.964" fill="#29a1b5" d="M 250.5,54.5 C 257.167,54.5 263.833,54.5 270.5,54.5C 271.167,55.8333 271.833,55.8333 272.5,54.5C 278.833,54.5 285.167,54.5 291.5,54.5C 291.167,55.1667 290.833,55.8333 290.5,56.5C 292.153,56.3404 293.486,55.6737 294.5,54.5C 300.833,54.5 307.167,54.5 313.5,54.5C 294.167,67.1667 274.833,79.8333 255.5,92.5C 277.834,80.3354 299.834,67.6687 321.5,54.5C 328.167,54.5 334.833,54.5 341.5,54.5C 314.997,71.2508 288.663,88.2508 262.5,105.5C 253.5,105.5 244.5,105.5 235.5,105.5C 235.167,104.167 234.833,104.167 234.5,105.5C 211.167,105.5 187.833,105.5 164.5,105.5C 164.833,104.833 165.167,104.167 165.5,103.5C 194.331,87.9213 222.665,71.588 250.5,54.5 Z M 291.5,54.5 C 292.5,54.5 293.5,54.5 294.5,54.5C 293.486,55.6737 292.153,56.3404 290.5,56.5C 290.833,55.8333 291.167,55.1667 291.5,54.5 Z M 313.5,54.5 C 316.167,54.5 318.833,54.5 321.5,54.5C 299.834,67.6687 277.834,80.3354 255.5,92.5C 274.833,79.8333 294.167,67.1667 313.5,54.5 Z M 290.5,56.5 C 290.027,57.9063 289.027,58.573 287.5,58.5C 287.973,57.0937 288.973,56.427 290.5,56.5 Z M 255.5,92.5 C 254.341,94.2503 252.674,95.2503 250.5,95.5C 251.659,93.7497 253.326,92.7497 255.5,92.5 Z"/></g>
<g><path style="opacity:0.958" fill="#29a1b5" d="M 354.5,54.5 C 360.833,54.5 367.167,54.5 373.5,54.5C 374.167,55.8333 374.833,55.8333 375.5,54.5C 381.69,54.1771 387.69,54.5104 393.5,55.5C 371.5,69.5 349.5,83.5 327.5,97.5C 326.508,97.3284 325.842,97.6618 325.5,98.5C 323.973,98.427 322.973,99.0937 322.5,100.5C 321.508,100.328 320.842,100.662 320.5,101.5C 319.508,101.328 318.842,101.662 318.5,102.5C 317.833,102.5 317.5,102.833 317.5,103.5C 316.508,103.328 315.842,103.662 315.5,104.5C 314.833,104.5 314.5,104.833 314.5,105.5C 298.833,105.5 283.167,105.5 267.5,105.5C 296.664,88.7522 325.664,71.7522 354.5,54.5 Z"/></g>
<g><path style="opacity:0.951" fill="#29a0b4" d="M 398.5,57.5 C 402.395,58.3931 405.062,60.7264 406.5,64.5C 396.322,69.7516 386.655,75.7516 377.5,82.5C 387.5,77.1667 397.5,71.8333 407.5,66.5C 410.083,71.0419 411.416,76.0419 411.5,81.5C 411.513,87.4393 411.18,93.4393 410.5,99.5C 407.291,101.265 404.291,103.265 401.5,105.5C 372.833,105.5 344.167,105.5 315.5,105.5C 315.5,105.167 315.5,104.833 315.5,104.5C 316.492,104.672 317.158,104.338 317.5,103.5C 318.167,103.5 318.5,103.167 318.5,102.5C 319.492,102.672 320.158,102.338 320.5,101.5C 321.492,101.672 322.158,101.338 322.5,100.5C 324.027,100.573 325.027,99.9063 325.5,98.5C 326.492,98.6716 327.158,98.3382 327.5,97.5C 351.329,84.4199 374.995,71.0866 398.5,57.5 Z M 377.5,82.5 C 376.341,84.2503 374.674,85.2503 372.5,85.5C 373.659,83.7497 375.326,82.7497 377.5,82.5 Z M 372.5,85.5 C 371.341,87.2503 369.674,88.2503 367.5,88.5C 368.659,86.7497 370.326,85.7497 372.5,85.5 Z"/></g>
<g><path style="opacity:0.998" fill="#48bbd5" d="M 441.5,115.5 C 411.126,134.014 381.126,153.014 351.5,172.5C 384.763,153.892 417.763,134.892 450.5,115.5C 457.296,114.226 463.963,114.226 470.5,115.5C 457.33,123.584 444.33,131.917 431.5,140.5C 446.333,132.921 460.666,124.587 474.5,115.5C 479.882,114.699 484.215,116.366 487.5,120.5C 469.545,131.138 451.879,142.138 434.5,153.5C 452.968,143.432 471.301,133.099 489.5,122.5C 492.634,125.41 494.801,129.077 496,133.5C 497.655,143.535 497.822,153.535 496.5,163.5C 471.3,177.929 446.3,192.596 421.5,207.5C 330.54,208.328 239.54,208.828 148.5,209C 146.846,209.608 145.179,210.108 143.5,210.5C 145.647,208.53 147.98,206.697 150.5,205C 133.617,213.198 117.117,222.365 101,232.5C 100.333,228.833 100.333,225.167 101,221.5C 123.08,206.21 145.247,191.043 167.5,176C 168.696,175.346 168.696,174.846 167.5,174.5C 144.779,187.524 122.112,200.524 99.5,213.5C 99.3334,185.831 99.5,158.165 100,130.5C 102.167,123 107,118.167 114.5,116C 147.498,115.5 180.498,115.333 213.5,115.5C 198.411,126.89 183.078,138.057 167.5,149C 166.304,149.654 166.304,150.154 167.5,150.5C 187.563,138.807 207.563,127.14 227.5,115.5C 233.5,115.5 239.5,115.5 245.5,115.5C 244.167,116.833 242.833,118.167 241.5,119.5C 244.331,118.921 246.664,117.588 248.5,115.5C 255.5,115.5 262.5,115.5 269.5,115.5C 245.581,132.804 221.248,149.638 196.5,166C 195.304,166.654 195.304,167.154 196.5,167.5C 226.394,150.392 256.06,133.059 285.5,115.5C 318.167,115.5 350.833,115.5 383.5,115.5C 374.167,121.833 364.833,128.167 355.5,134.5C 366.763,128.558 377.763,122.225 388.5,115.5C 394.833,115.5 401.167,115.5 407.5,115.5C 367.231,141.309 326.898,167.142 286.5,193C 290.96,191.608 295.293,189.608 299.5,187C 327.003,170.747 354.67,154.747 382.5,139C 385.921,137.301 388.921,135.135 391.5,132.5C 401.449,127.197 411.115,121.53 420.5,115.5C 427.642,114.262 434.642,114.262 441.5,115.5 Z M 245.5,115.5 C 246.5,115.5 247.5,115.5 248.5,115.5C 246.664,117.588 244.331,118.921 241.5,119.5C 242.833,118.167 244.167,116.833 245.5,115.5 Z M 383.5,115.5 C 385.167,115.5 386.833,115.5 388.5,115.5C 377.763,122.225 366.763,128.558 355.5,134.5C 364.833,128.167 374.167,121.833 383.5,115.5 Z M 414.5,115.5 C 416.5,115.5 418.5,115.5 420.5,115.5C 411.115,121.53 401.449,127.197 391.5,132.5C 390.711,132.217 390.044,131.717 389.5,131C 398.006,125.97 406.339,120.804 414.5,115.5 Z M 441.5,115.5 C 444.5,115.5 447.5,115.5 450.5,115.5C 417.763,134.892 384.763,153.892 351.5,172.5C 381.126,153.014 411.126,134.014 441.5,115.5 Z M 470.5,115.5 C 471.833,115.5 473.167,115.5 474.5,115.5C 460.666,124.587 446.333,132.921 431.5,140.5C 444.33,131.917 457.33,123.584 470.5,115.5 Z M 353.5,135.5 C 353.027,136.906 352.027,137.573 350.5,137.5C 350.973,136.094 351.973,135.427 353.5,135.5 Z M 429.5,141.5 C 429.027,142.906 428.027,143.573 426.5,143.5C 426.973,142.094 427.973,141.427 429.5,141.5 Z M 424.5,144.5 C 424.027,145.906 423.027,146.573 421.5,146.5C 421.973,145.094 422.973,144.427 424.5,144.5 Z M 434.5,153.5 C 433.341,155.25 431.674,156.25 429.5,156.5C 430.659,154.75 432.326,153.75 434.5,153.5 Z M 349.5,173.5 C 349.027,174.906 348.027,175.573 346.5,175.5C 346.973,174.094 347.973,173.427 349.5,173.5 Z"/></g>
<g><path style="opacity:0.964" fill="#2ba2b7" d="M 213.5,115.5 C 218.167,115.5 222.833,115.5 227.5,115.5C 207.563,127.14 187.563,138.807 167.5,150.5C 166.304,150.154 166.304,149.654 167.5,149C 183.078,138.057 198.411,126.89 213.5,115.5 Z"/></g>
<g><path style="opacity:1" fill="#2ba2b6" d="M 269.5,115.5 C 274.833,115.5 280.167,115.5 285.5,115.5C 256.06,133.059 226.394,150.392 196.5,167.5C 195.304,167.154 195.304,166.654 196.5,166C 221.248,149.638 245.581,132.804 269.5,115.5 Z"/></g>
<g><path style="opacity:0.964" fill="#2ba2b6" d="M 407.5,115.5 C 409.833,115.5 412.167,115.5 414.5,115.5C 406.339,120.804 398.006,125.97 389.5,131C 390.044,131.717 390.711,132.217 391.5,132.5C 388.921,135.135 385.921,137.301 382.5,139C 354.67,154.747 327.003,170.747 299.5,187C 295.293,189.608 290.96,191.608 286.5,193C 326.898,167.142 367.231,141.309 407.5,115.5 Z"/></g>
<g><path style="opacity:0.966" fill="#29a0b4" d="M 85.5,143.5 C 86.8304,150.133 87.4971,157.133 87.5,164.5C 87.2255,177.384 86.8922,190.051 86.5,202.5C 62.5171,216.139 38.5171,229.806 14.5,243.5C 14.5,239.5 14.5,235.5 14.5,231.5C 30.7113,222.235 46.378,212.235 61.5,201.5C 45.6724,209.913 30.0058,218.58 14.5,227.5C 14.5,223.5 14.5,219.5 14.5,215.5C 17.1667,215.167 17.1667,214.833 14.5,214.5C 14.5,210.833 14.5,207.167 14.5,203.5C 15.8333,203.167 15.8333,202.833 14.5,202.5C 14.5,198.5 14.5,194.5 14.5,190.5C 35.7089,176.735 56.7089,162.735 77.5,148.5C 79.0269,148.573 80.0269,147.906 80.5,146.5C 81.4916,146.672 82.1583,146.338 82.5,145.5C 83.1667,145.5 83.5,145.167 83.5,144.5C 84.4916,144.672 85.1583,144.338 85.5,143.5 Z M 69.5,196.5 C 69.0269,197.906 68.0269,198.573 66.5,198.5C 66.9731,197.094 67.9731,196.427 69.5,196.5 Z M 66.5,198.5 C 65.3406,200.25 63.674,201.25 61.5,201.5C 62.6594,199.75 64.326,198.75 66.5,198.5 Z"/></g>
<g><path style="opacity:0.947" fill="#49bbd6" d="M 496.5,173.5 C 496.5,177.167 496.5,180.833 496.5,184.5C 482.811,193.201 469.144,201.867 455.5,210.5C 449.064,209.317 442.73,208.317 436.5,207.5C 456.26,195.739 476.26,184.405 496.5,173.5 Z"/></g>
<g><path style="opacity:0.946" fill="#49bcd7" d="M 496.5,192.5 C 496.5,196.167 496.5,199.833 496.5,203.5C 495.167,203.833 495.167,204.167 496.5,204.5C 496.5,212.5 496.5,220.5 496.5,228.5C 494.147,229.34 492.147,230.674 490.5,232.5C 492.5,231.833 494.5,231.167 496.5,230.5C 496.5,234.167 496.5,237.833 496.5,241.5C 486.626,247.598 476.959,253.931 467.5,260.5C 466.203,255.934 466.203,251.267 467.5,246.5C 467.938,246.565 468.272,246.399 468.5,246C 466.721,239.106 465.888,231.94 466,224.5C 464.585,219.998 462.419,215.998 459.5,212.5C 471.674,205.579 484.007,198.912 496.5,192.5 Z M 490.5,232.5 C 489.341,234.25 487.674,235.25 485.5,235.5C 486.659,233.75 488.326,232.75 490.5,232.5 Z M 483.5,236.5 C 483.027,237.906 482.027,238.573 480.5,238.5C 480.973,237.094 481.973,236.427 483.5,236.5 Z"/></g>
<g><path style="opacity:1" fill="#2ea2b7" d="M 143.5,210.5 C 141.858,211.803 140.191,213.136 138.5,214.5C 138.103,213.475 137.437,213.308 136.5,214C 124.752,221.958 112.919,229.791 101,237.5C 100.833,239.167 100.667,240.833 100.5,242.5C 100.613,244.641 101.28,246.475 102.5,248C 102,248.5 101.5,249 101,249.5C 100.333,252.833 100.333,256.167 101,259.5C 110.312,253.763 119.812,248.429 129.5,243.5C 129.5,244.5 129.5,245.5 129.5,246.5C 120.195,252.489 110.862,258.489 101.5,264.5C 100.167,267.833 100.167,271.167 101.5,274.5C 110.861,269.155 120.194,263.821 129.5,258.5C 129.5,259.5 129.5,260.5 129.5,261.5C 119.816,266.862 110.15,272.195 100.5,277.5C 99.5027,256.34 99.1694,235.007 99.5,213.5C 122.112,200.524 144.779,187.524 167.5,174.5C 168.696,174.846 168.696,175.346 167.5,176C 145.247,191.043 123.08,206.21 101,221.5C 100.333,225.167 100.333,228.833 101,232.5C 117.117,222.365 133.617,213.198 150.5,205C 147.98,206.697 145.647,208.53 143.5,210.5 Z"/></g>
<g><path style="opacity:1" fill="#49bbd6" d="M 138.5,214.5 C 130.123,222.308 127.123,231.975 129.5,243.5C 119.812,248.429 110.312,253.763 101,259.5C 100.333,256.167 100.333,252.833 101,249.5C 101.5,249 102,248.5 102.5,248C 101.28,246.475 100.613,244.641 100.5,242.5C 100.667,240.833 100.833,239.167 101,237.5C 112.919,229.791 124.752,221.958 136.5,214C 137.437,213.308 138.103,213.475 138.5,214.5 Z"/></g>
<g><path style="opacity:0.999" fill="#0d70db" d="M 154.5,217.5 C 153.443,219.941 152.11,222.275 150.5,224.5C 155.492,223.338 160.158,221.005 164.5,217.5C 170.5,217.5 176.5,217.5 182.5,217.5C 178.519,220.812 175.186,224.146 172.5,227.5C 178.139,224.501 183.473,221.168 188.5,217.5C 194.5,217.5 200.5,217.5 206.5,217.5C 201.732,221.091 197.065,224.925 192.5,229C 199.702,225.728 206.702,221.895 213.5,217.5C 219.167,217.5 224.833,217.5 230.5,217.5C 227.634,220.521 224.3,223.021 220.5,225C 219.304,225.654 219.304,226.154 220.5,226.5C 225.729,223.726 230.729,220.726 235.5,217.5C 247.833,217.5 260.167,217.5 272.5,217.5C 270.073,219.558 267.407,221.391 264.5,223C 263.304,223.654 263.304,224.154 264.5,224.5C 268.475,222.501 272.141,220.168 275.5,217.5C 281.5,217.5 287.5,217.5 293.5,217.5C 276.912,229.472 259.912,240.972 242.5,252C 241.304,252.654 241.304,253.154 242.5,253.5C 263.061,241.726 283.395,229.726 303.5,217.5C 309.167,217.5 314.833,217.5 320.5,217.5C 309.404,225.225 298.07,232.725 286.5,240C 285.304,240.654 285.304,241.154 286.5,241.5C 300.135,233.836 313.468,225.836 326.5,217.5C 332.5,217.5 338.5,217.5 344.5,217.5C 332.34,225.47 320.007,233.304 307.5,241C 306.304,241.654 306.304,242.154 307.5,242.5C 321.894,234.644 335.894,226.311 349.5,217.5C 355.5,217.5 361.5,217.5 367.5,217.5C 336.676,238.137 305.676,258.637 274.5,279C 273.304,279.654 273.304,280.154 274.5,280.5C 310.891,259.978 346.891,238.978 382.5,217.5C 395.167,217.5 407.833,217.5 420.5,217.5C 394.231,234.309 367.898,251.142 341.5,268C 341.833,268.167 342.167,268.333 342.5,268.5C 371.727,251.726 400.727,234.726 429.5,217.5C 434.844,217.334 440.177,217.501 445.5,218C 448.739,219.736 451.073,222.236 452.5,225.5C 438.012,235.582 423.012,244.915 407.5,253.5C 387.15,246.668 371.983,252.668 362,271.5C 360.71,275.73 360.21,280.064 360.5,284.5C 351.055,290.061 341.721,295.895 332.5,302C 341.866,297.482 351.199,292.649 360.5,287.5C 362.612,295.403 366.946,301.736 373.5,306.5C 362.184,313.473 350.851,320.473 339.5,327.5C 335.696,324.761 331.696,322.261 327.5,320C 320.59,320.452 314.59,323.119 309.5,328C 300.292,337.041 291.292,346.208 282.5,355.5C 269.347,342.847 256.347,330.014 243.5,317C 234.659,309.754 225.992,310.088 217.5,318C 203.631,331.701 189.965,345.535 176.5,359.5C 164.871,365.314 153.538,371.648 142.5,378.5C 142.5,374.833 142.5,371.167 142.5,367.5C 142.617,363.81 142.617,359.81 142.5,355.5C 173.118,336.185 203.452,316.352 233.5,296C 202.996,312.593 172.663,329.759 142.5,347.5C 142.5,343.833 142.5,340.167 142.5,336.5C 151.113,331.856 159.446,326.69 167.5,321C 159.29,325.105 150.957,329.272 142.5,333.5C 142.5,330.167 142.5,326.833 142.5,323.5C 151.308,318.261 159.974,312.761 168.5,307C 159.827,311.172 151.161,315.672 142.5,320.5C 142.5,316.833 142.5,313.167 142.5,309.5C 156.934,300.248 171.267,290.748 185.5,281C 170.999,288.256 156.666,296.089 142.5,304.5C 142.168,292.814 142.501,281.148 143.5,269.5C 146.089,267.713 145.923,267.379 143,268.5C 142.333,264.5 142.333,260.5 143,256.5C 149.176,252.529 149.009,251.863 142.5,254.5C 141.099,244.947 141.266,235.281 143,225.5C 145.005,220.244 148.839,217.578 154.5,217.5 Z"/></g>
<g><path style="opacity:1" fill="#46b7d8" d="M 154.5,217.5 C 157.833,217.5 161.167,217.5 164.5,217.5C 160.158,221.005 155.492,223.338 150.5,224.5C 152.11,222.275 153.443,219.941 154.5,217.5 Z"/></g>
<g><path style="opacity:1" fill="#43b2d8" d="M 182.5,217.5 C 184.5,217.5 186.5,217.5 188.5,217.5C 183.473,221.168 178.139,224.501 172.5,227.5C 175.186,224.146 178.519,220.812 182.5,217.5 Z"/></g>
<g><path style="opacity:1" fill="#44b4d8" d="M 206.5,217.5 C 208.833,217.5 211.167,217.5 213.5,217.5C 206.702,221.895 199.702,225.728 192.5,229C 197.065,224.925 201.732,221.091 206.5,217.5 Z"/></g>
<g><path style="opacity:1" fill="#45b6d8" d="M 293.5,217.5 C 296.833,217.5 300.167,217.5 303.5,217.5C 283.395,229.726 263.061,241.726 242.5,253.5C 241.304,253.154 241.304,252.654 242.5,252C 259.912,240.972 276.912,229.472 293.5,217.5 Z"/></g>
<g><path style="opacity:1" fill="#44b4d8" d="M 320.5,217.5 C 322.5,217.5 324.5,217.5 326.5,217.5C 313.468,225.836 300.135,233.836 286.5,241.5C 285.304,241.154 285.304,240.654 286.5,240C 298.07,232.725 309.404,225.225 320.5,217.5 Z"/></g>
<g><path style="opacity:1" fill="#47b8d8" d="M 367.5,217.5 C 372.5,217.5 377.5,217.5 382.5,217.5C 346.891,238.978 310.891,259.978 274.5,280.5C 273.304,280.154 273.304,279.654 274.5,279C 305.676,258.637 336.676,238.137 367.5,217.5 Z"/></g>
<g><path style="opacity:1" fill="#45b5d8" d="M 420.5,217.5 C 423.5,217.5 426.5,217.5 429.5,217.5C 400.727,234.726 371.727,251.726 342.5,268.5C 342.167,268.333 341.833,268.167 341.5,268C 367.898,251.142 394.231,234.309 420.5,217.5 Z"/></g>
<g><path style="opacity:1" fill="#40afd7" d="M 230.5,217.5 C 232.167,217.5 233.833,217.5 235.5,217.5C 230.729,220.726 225.729,223.726 220.5,226.5C 219.304,226.154 219.304,225.654 220.5,225C 224.3,223.021 227.634,220.521 230.5,217.5 Z"/></g>
<g><path style="opacity:1" fill="#40afd8" d="M 272.5,217.5 C 273.5,217.5 274.5,217.5 275.5,217.5C 272.141,220.168 268.475,222.501 264.5,224.5C 263.304,224.154 263.304,223.654 264.5,223C 267.407,221.391 270.073,219.558 272.5,217.5 Z"/></g>
<g><path style="opacity:1" fill="#41afd8" d="M 344.5,217.5 C 346.167,217.5 347.833,217.5 349.5,217.5C 335.894,226.311 321.894,234.644 307.5,242.5C 306.304,242.154 306.304,241.654 307.5,241C 320.007,233.304 332.34,225.47 344.5,217.5 Z"/></g>
<g><path style="opacity:0.969" fill="#47b8d7" d="M 452.5,225.5 C 453.468,227.607 453.802,229.941 453.5,232.5C 440.033,240.737 426.366,248.737 412.5,256.5C 410.566,255.89 408.899,254.89 407.5,253.5C 423.012,244.915 438.012,235.582 452.5,225.5 Z"/></g>
<g><path style="opacity:0.955" fill="#29a1b5" d="M 86.5,205.5 C 87.4933,214.318 87.8266,223.318 87.5,232.5C 86.1667,232.833 86.1667,233.167 87.5,233.5C 87.5,250.833 87.5,268.167 87.5,285.5C 63.1667,299.5 38.8333,313.5 14.5,327.5C 14.5,315.833 14.5,304.167 14.5,292.5C 24.8742,286.653 34.8742,280.319 44.5,273.5C 34.5,278.833 24.5,284.167 14.5,289.5C 14.5,285.833 14.5,282.167 14.5,278.5C 33.705,266.736 52.705,254.736 71.5,242.5C 52.3655,252.901 33.3655,263.568 14.5,274.5C 14.5,266.5 14.5,258.5 14.5,250.5C 38.5175,235.473 62.5175,220.473 86.5,205.5 Z M 76.5,239.5 C 75.3406,241.25 73.674,242.25 71.5,242.5C 72.6594,240.75 74.326,239.75 76.5,239.5 Z M 47.5,271.5 C 47.0269,272.906 46.0269,273.573 44.5,273.5C 44.9731,272.094 45.9731,271.427 47.5,271.5 Z"/></g>
<g><path style="opacity:1" fill="#1272d9" d="M 453.5,232.5 C 454.492,239.648 454.825,246.981 454.5,254.5C 444.306,261.095 433.972,267.429 423.5,273.5C 421.046,267.046 417.379,261.38 412.5,256.5C 426.366,248.737 440.033,240.737 453.5,232.5 Z"/></g>
<g><path style="opacity:0.948" fill="#4abcd7" d="M 496.5,245.5 C 496.5,253.5 496.5,261.5 496.5,269.5C 486.662,275.585 476.996,281.918 467.5,288.5C 466.167,279.833 466.167,271.167 467.5,262.5C 477.331,257.086 486.998,251.419 496.5,245.5 Z"/></g>
<g><path style="opacity:1" fill="#49bcd7" d="M 129.5,246.5 C 129.5,250.5 129.5,254.5 129.5,258.5C 120.194,263.821 110.861,269.155 101.5,274.5C 100.167,271.167 100.167,267.833 101.5,264.5C 110.862,258.489 120.195,252.489 129.5,246.5 Z"/></g>
<g><path style="opacity:1" fill="#28292a" d="M 407.5,253.5 C 408.899,254.89 410.566,255.89 412.5,256.5C 417.379,261.38 421.046,267.046 423.5,273.5C 423.5,275.833 423.5,278.167 423.5,280.5C 423.693,285.438 422.693,290.105 420.5,294.5C 418.512,297.128 416.512,299.795 414.5,302.5C 410.458,306.19 405.791,308.857 400.5,310.5C 398.097,310.448 395.764,310.781 393.5,311.5C 387.599,311.653 381.933,310.653 376.5,308.5C 375.71,307.599 374.71,306.932 373.5,306.5C 366.946,301.736 362.612,295.403 360.5,287.5C 360.5,286.5 360.5,285.5 360.5,284.5C 360.21,280.064 360.71,275.73 362,271.5C 371.983,252.668 387.15,246.668 407.5,253.5 Z"/></g>
<g><path style="opacity:0.999" fill="#47b8d5" d="M 454.5,254.5 C 454.5,257.5 454.5,260.5 454.5,263.5C 444.327,269.421 433.994,275.087 423.5,280.5C 423.5,278.167 423.5,275.833 423.5,273.5C 433.972,267.429 444.306,261.095 454.5,254.5 Z"/></g>
<g><path style="opacity:1" fill="#f6c755" d="M 404.5,266.5 C 397.817,272.174 398.483,272.841 406.5,268.5C 414.267,279.347 412.934,289.514 402.5,299C 399.386,300.931 396.053,301.598 392.5,301C 393.696,300.346 393.696,299.846 392.5,299.5C 387.385,301.975 383.051,300.808 379.5,296C 383.425,292.202 382.925,291.702 378,294.5C 375.644,292.138 374.144,289.305 373.5,286C 374.101,284.395 375.101,283.062 376.5,282C 375.451,281.508 374.451,281.674 373.5,282.5C 372.032,271.119 376.866,263.786 388,260.5C 388.833,260.667 389.667,260.833 390.5,261C 389.5,262 388.5,263 387.5,264C 387.833,264.167 388.167,264.333 388.5,264.5C 394.48,260.164 399.813,260.831 404.5,266.5 Z"/></g>
<g><path style="opacity:1" fill="#47bbd6" d="M 129.5,263.5 C 129.5,267.833 129.5,272.167 129.5,276.5C 119.943,281.378 110.61,286.711 101.5,292.5C 100.511,288.893 100.177,285.226 100.5,281.5C 100.5,281.167 100.5,280.833 100.5,280.5C 110.303,275.097 119.97,269.43 129.5,263.5 Z"/></g>
<g><path style="opacity:1" fill="#0e70da" d="M 454.5,263.5 C 454.5,266.833 454.5,270.167 454.5,273.5C 443.149,280.527 431.816,287.527 420.5,294.5C 422.693,290.105 423.693,285.438 423.5,280.5C 433.994,275.087 444.327,269.421 454.5,263.5 Z"/></g>
<g><path style="opacity:1" fill="#3478c9" d="M 404.5,266.5 C 405.5,266.833 406.167,267.5 406.5,268.5C 398.483,272.841 397.817,272.174 404.5,266.5 Z"/></g>
<g><path style="opacity:1" fill="#47b7d6" d="M 454.5,273.5 C 454.5,275.833 454.5,278.167 454.5,280.5C 441.167,287.833 427.833,295.167 414.5,302.5C 416.512,299.795 418.512,297.128 420.5,294.5C 431.816,287.527 443.149,280.527 454.5,273.5 Z"/></g>
<g><path style="opacity:0.964" fill="#4abcd7" d="M 496.5,275.5 C 496.5,279.5 496.5,283.5 496.5,287.5C 486.626,293.598 476.959,299.931 467.5,306.5C 466.2,301.6 466.2,296.6 467.5,291.5C 477.3,286.433 486.967,281.099 496.5,275.5 Z"/></g>
<g><path style="opacity:1" fill="#2ea2b6" d="M 129.5,276.5 C 129.5,278.5 129.5,280.5 129.5,282.5C 120.195,288.489 110.862,294.489 101.5,300.5C 100.341,304.122 100.175,307.789 101,311.5C 110.61,305.948 120.11,300.281 129.5,294.5C 129.5,296.5 129.5,298.5 129.5,300.5C 120.385,305.775 111.385,311.275 102.5,317C 100.955,318.822 100.288,320.989 100.5,323.5C 100.667,325.167 100.833,326.833 101,328.5C 110.312,322.763 119.812,317.429 129.5,312.5C 129.5,313.5 129.5,314.5 129.5,315.5C 120.057,320.725 110.724,326.225 101.5,332C 100.378,335.409 100.211,338.909 101,342.5C 110.312,336.763 119.812,331.429 129.5,326.5C 129.5,327.5 129.5,328.5 129.5,329.5C 119.884,335.276 110.384,341.276 101,347.5C 100.333,354.167 100.333,360.833 101,367.5C 108.458,362.358 116.291,358.191 124.5,355C 117,359.918 109.333,364.584 101.5,369C 100.891,370.948 100.224,372.782 99.5,374.5C 99.1685,343.329 99.5018,312.329 100.5,281.5C 100.177,285.226 100.511,288.893 101.5,292.5C 110.61,286.711 119.943,281.378 129.5,276.5 Z"/></g>
<g><path style="opacity:1" fill="#0e70db" d="M 454.5,280.5 C 454.5,283.833 454.5,287.167 454.5,290.5C 449.057,293.392 443.724,296.559 438.5,300C 443.863,297.822 449.196,295.322 454.5,292.5C 454.5,295.833 454.5,299.167 454.5,302.5C 445.403,307.748 436.403,313.248 427.5,319C 429.598,318.968 431.598,318.301 433.5,317C 440.387,312.607 447.387,308.44 454.5,304.5C 454.5,308.167 454.5,311.833 454.5,315.5C 439.384,324.776 424.384,334.276 409.5,344C 410.908,344.315 412.241,343.982 413.5,343C 426.895,334.637 440.562,326.804 454.5,319.5C 454.5,322.833 454.5,326.167 454.5,329.5C 438.382,339.777 422.382,350.277 406.5,361C 407.908,361.315 409.241,360.982 410.5,360C 425.03,351.236 439.697,342.736 454.5,334.5C 454.5,342.167 454.5,349.833 454.5,357.5C 448.387,361.062 442.387,364.896 436.5,369C 442.779,366.6 448.779,363.434 454.5,359.5C 454.5,367.167 454.5,374.833 454.5,382.5C 446.761,387.399 439.428,392.899 432.5,399C 439.839,395.494 447.173,391.661 454.5,387.5C 454.5,396.5 454.5,405.5 454.5,414.5C 452.037,416.461 449.703,418.628 447.5,421C 449.989,420.763 452.322,419.929 454.5,418.5C 454.5,422.5 454.5,426.5 454.5,430.5C 450.154,430.666 445.821,430.499 441.5,430C 407.632,396.299 373.965,362.465 340.5,328.5C 352.5,321.833 364.5,315.167 376.5,308.5C 381.933,310.653 387.599,311.653 393.5,311.5C 385.575,317.473 377.241,322.973 368.5,328C 367.304,328.654 367.304,329.154 368.5,329.5C 379.23,323.14 389.897,316.807 400.5,310.5C 405.791,308.857 410.458,306.19 414.5,302.5C 427.833,295.167 441.167,287.833 454.5,280.5 Z"/></g>
<g><path style="opacity:1" fill="#49bcd7" d="M 129.5,282.5 C 129.5,286.5 129.5,290.5 129.5,294.5C 120.11,300.281 110.61,305.948 101,311.5C 100.175,307.789 100.341,304.122 101.5,300.5C 110.862,294.489 120.195,288.489 129.5,282.5 Z"/></g>
<g><path style="opacity:0.964" fill="#2aa0b4" d="M 87.5,289.5 C 88.7903,298.372 88.7903,307.372 87.5,316.5C 86.5084,316.328 85.8417,316.662 85.5,317.5C 61.8333,330.833 38.1667,344.167 14.5,357.5C 14.5,349.833 14.5,342.167 14.5,334.5C 38.9727,319.762 63.3061,304.762 87.5,289.5 Z"/></g>
<g><path style="opacity:0.953" fill="#4abcd7" d="M 496.5,291.5 C 496.5,295.5 496.5,299.5 496.5,303.5C 487.87,308.809 479.536,314.475 471.5,320.5C 470.508,320.328 469.842,320.662 469.5,321.5C 468.833,321.5 468.5,321.833 468.5,322.5C 467.195,320.603 466.529,318.269 466.5,315.5C 466.551,312.747 466.884,310.08 467.5,307.5C 477.3,302.433 486.967,297.099 496.5,291.5 Z"/></g>
<g><path style="opacity:1" fill="#40afd8" d="M 360.5,284.5 C 360.5,285.5 360.5,286.5 360.5,287.5C 351.199,292.649 341.866,297.482 332.5,302C 341.721,295.895 351.055,290.061 360.5,284.5 Z"/></g>
<g><path style="opacity:1" fill="#3badcd" d="M 142.5,309.5 C 142.5,307.833 142.5,306.167 142.5,304.5C 156.666,296.089 170.999,288.256 185.5,281C 171.267,290.748 156.934,300.248 142.5,309.5 Z"/></g>
<g><path style="opacity:1" fill="#3ba8d9" d="M 454.5,290.5 C 454.5,291.167 454.5,291.833 454.5,292.5C 449.196,295.322 443.863,297.822 438.5,300C 443.724,296.559 449.057,293.392 454.5,290.5 Z"/></g>
<g><path style="opacity:1" fill="#49bcd7" d="M 129.5,300.5 C 129.5,304.5 129.5,308.5 129.5,312.5C 119.812,317.429 110.312,322.763 101,328.5C 100.833,326.833 100.667,325.167 100.5,323.5C 100.288,320.989 100.955,318.822 102.5,317C 111.385,311.275 120.385,305.775 129.5,300.5 Z"/></g>
<g><path style="opacity:1" fill="#40aed8" d="M 454.5,302.5 C 454.5,303.167 454.5,303.833 454.5,304.5C 447.387,308.44 440.387,312.607 433.5,317C 431.598,318.301 429.598,318.968 427.5,319C 436.403,313.248 445.403,307.748 454.5,302.5 Z"/></g>
<g><path style="opacity:1" fill="#44b4d7" d="M 373.5,306.5 C 374.71,306.932 375.71,307.599 376.5,308.5C 364.5,315.167 352.5,321.833 340.5,328.5C 339.833,328.5 339.5,328.167 339.5,327.5C 350.851,320.473 362.184,313.473 373.5,306.5 Z"/></g>
<g><path style="opacity:0.962" fill="#49bcd7" d="M 496.5,306.5 C 496.5,310.833 496.5,315.167 496.5,319.5C 486.691,325.574 477.024,331.908 467.5,338.5C 466.836,336.19 466.503,333.69 466.5,331C 466.611,327.895 467.278,325.062 468.5,322.5C 469.167,322.5 469.5,322.167 469.5,321.5C 470.492,321.672 471.158,321.338 471.5,320.5C 479.968,316.099 488.301,311.432 496.5,306.5 Z"/></g>
<g><path style="opacity:1" fill="#46b8d8" d="M 142.5,355.5 C 142.5,352.833 142.5,350.167 142.5,347.5C 172.663,329.759 202.996,312.593 233.5,296C 203.452,316.352 173.118,336.185 142.5,355.5 Z"/></g>
<g><path style="opacity:1" fill="#253a4a" d="M 142.5,304.5 C 142.5,306.167 142.5,307.833 142.5,309.5C 142.5,313.167 142.5,316.833 142.5,320.5C 142.5,321.5 142.5,322.5 142.5,323.5C 142.5,326.833 142.5,330.167 142.5,333.5C 142.5,334.5 142.5,335.5 142.5,336.5C 142.5,340.167 142.5,343.833 142.5,347.5C 142.5,350.167 142.5,352.833 142.5,355.5C 142.617,359.81 142.617,363.81 142.5,367.5C 141.171,329.931 141.171,292.264 142.5,254.5C 149.009,251.863 149.176,252.529 143,256.5C 142.333,260.5 142.333,264.5 143,268.5C 145.923,267.379 146.089,267.713 143.5,269.5C 142.501,281.148 142.168,292.814 142.5,304.5 Z"/></g>
<g><path style="opacity:1" fill="#40b0d5" d="M 142.5,323.5 C 142.5,322.5 142.5,321.5 142.5,320.5C 151.161,315.672 159.827,311.172 168.5,307C 159.974,312.761 151.308,318.261 142.5,323.5 Z"/></g>
<g><path style="opacity:1" fill="#49bcd7" d="M 129.5,315.5 C 129.5,319.167 129.5,322.833 129.5,326.5C 119.812,331.429 110.312,336.763 101,342.5C 100.211,338.909 100.378,335.409 101.5,332C 110.724,326.225 120.057,320.725 129.5,315.5 Z"/></g>
<g><path style="opacity:0.925" fill="#44b5d8" d="M 454.5,315.5 C 454.5,316.833 454.5,318.167 454.5,319.5C 440.562,326.804 426.895,334.637 413.5,343C 412.241,343.982 410.908,344.315 409.5,344C 424.384,334.276 439.384,324.776 454.5,315.5 Z"/></g>
<g><path style="opacity:1" fill="#8ecc4b" d="M 238.5,329.5 C 231.53,334.657 224.53,339.824 217.5,345C 225.529,341.198 233.529,337.032 241.5,332.5C 244.427,333.757 246.761,335.757 248.5,338.5C 243.529,341.99 238.529,345.49 233.5,349C 239.326,346.754 244.993,343.92 250.5,340.5C 255.23,344.227 259.23,348.56 262.5,353.5C 249.347,363.137 236.014,372.637 222.5,382C 223.908,382.315 225.241,381.982 226.5,381C 239.696,372.903 253.03,365.07 266.5,357.5C 269.608,358.773 271.941,360.939 273.5,364C 267.81,369.356 262.477,375.022 257.5,381C 257.645,381.772 257.978,382.439 258.5,383C 262.452,383.912 266.119,383.245 269.5,381C 286.138,363.362 303.138,346.028 320.5,329C 321.833,328.333 323.167,328.333 324.5,329C 328.037,332.369 331.371,335.869 334.5,339.5C 326.783,344.018 319.449,349.018 312.5,354.5C 320.483,350.195 328.483,345.862 336.5,341.5C 338.812,343.146 340.812,345.146 342.5,347.5C 338.768,350.898 339.268,351.232 344,348.5C 346.372,350.703 348.539,353.037 350.5,355.5C 340.777,361.688 331.443,368.355 322.5,375.5C 332.967,370.1 343.3,364.433 353.5,358.5C 358.167,362.5 362.5,366.833 366.5,371.5C 359.683,376.803 352.683,381.97 345.5,387C 353.533,383.148 361.533,378.981 369.5,374.5C 372.167,376.5 374.5,378.833 376.5,381.5C 367.53,388.658 358.53,395.825 349.5,403C 360.038,397.725 370.372,391.892 380.5,385.5C 382.963,387.461 385.297,389.628 387.5,392C 386.833,392.667 386.167,393.333 385.5,394C 389.836,394.094 393.17,396.261 395.5,400.5C 381.949,412.57 382.949,413.57 398.5,403.5C 401.5,405.833 404.167,408.5 406.5,411.5C 404.72,414.454 402.72,417.287 400.5,420C 403.857,418.877 407.19,417.377 410.5,415.5C 415.167,419.5 419.5,423.833 423.5,428.5C 422.833,428.5 422.5,428.833 422.5,429.5C 409.537,430.443 396.537,430.777 383.5,430.5C 386.123,426.098 389.123,421.931 392.5,418C 390.332,417.751 388.665,418.584 387.5,420.5C 386.833,420.5 386.5,420.833 386.5,421.5C 385.833,421.5 385.5,421.833 385.5,422.5C 385.167,422.5 384.833,422.5 384.5,422.5C 383.833,422.5 383.5,422.833 383.5,423.5C 379.665,425.25 375.999,427.25 372.5,429.5C 365.704,430.774 359.037,430.774 352.5,429.5C 357.508,425.518 361.508,421.185 364.5,416.5C 356.603,420.941 348.936,425.608 341.5,430.5C 335.824,430.666 330.157,430.499 324.5,430C 325.96,429.189 326.293,428.355 325.5,427.5C 324.3,428.531 322.966,429.365 321.5,430C 315.509,430.499 309.509,430.666 303.5,430.5C 312.577,422.447 321.911,414.614 331.5,407C 317.666,413.923 303.999,421.423 290.5,429.5C 284.591,430.455 278.591,430.789 272.5,430.5C 279.982,424.53 287.649,418.697 295.5,413C 295.167,412.833 294.833,412.667 294.5,412.5C 284.437,418.526 274.437,424.526 264.5,430.5C 252.5,429.167 240.5,429.167 228.5,430.5C 238.925,422.776 249.592,415.276 260.5,408C 261.696,407.346 261.696,406.846 260.5,406.5C 246.606,414.274 232.939,422.274 219.5,430.5C 213.824,430.666 208.157,430.499 202.5,430C 203.696,429.346 203.696,428.846 202.5,428.5C 201.5,429 200.5,429.5 199.5,430C 193.843,430.499 188.176,430.666 182.5,430.5C 191.675,424.413 200.675,418.079 209.5,411.5C 198.237,417.442 187.237,423.775 176.5,430.5C 164.784,431.144 153.451,430.478 142.5,428.5C 155.343,419.164 168.343,409.997 181.5,401C 180.092,400.685 178.759,401.018 177.5,402C 166.275,408.776 154.942,415.276 143.5,421.5C 142.348,416.015 142.182,410.349 143,404.5C 171.113,376.387 199.279,348.221 227.5,320C 232.475,321.463 236.142,324.63 238.5,329.5 Z M 383.5,423.5 C 381.167,425.5 378.833,427.5 376.5,429.5C 375.167,429.5 373.833,429.5 372.5,429.5C 375.999,427.25 379.665,425.25 383.5,423.5 Z"/></g>
<g><path style="opacity:1" fill="#42b2d7" d="M 400.5,310.5 C 389.897,316.807 379.23,323.14 368.5,329.5C 367.304,329.154 367.304,328.654 368.5,328C 377.241,322.973 385.575,317.473 393.5,311.5C 395.764,310.781 398.097,310.448 400.5,310.5 Z"/></g>
<g><path style="opacity:0.968" fill="#49bcd7" d="M 496.5,324.5 C 496.5,332.833 496.5,341.167 496.5,349.5C 494.973,349.427 493.973,350.094 493.5,351.5C 494.609,351.443 495.609,351.11 496.5,350.5C 496.5,354.833 496.5,359.167 496.5,363.5C 495.167,363.833 495.167,364.167 496.5,364.5C 496.782,369.927 496.449,375.26 495.5,380.5C 492.141,383.529 488.808,386.529 485.5,389.5C 489.117,388.358 492.45,386.692 495.5,384.5C 491.929,400.072 482.262,409.072 466.5,411.5C 466.409,387.805 466.742,364.139 467.5,340.5C 477.033,334.901 486.7,329.567 496.5,324.5 Z"/></g>
<g><path style="opacity:1" fill="#43b3d8" d="M 142.5,336.5 C 142.5,335.5 142.5,334.5 142.5,333.5C 150.957,329.272 159.29,325.105 167.5,321C 159.446,326.69 151.113,331.856 142.5,336.5 Z"/></g>
<g><path style="opacity:1" fill="#2076d1" d="M 238.5,329.5 C 240.5,329.5 241.5,330.5 241.5,332.5C 233.529,337.032 225.529,341.198 217.5,345C 224.53,339.824 231.53,334.657 238.5,329.5 Z"/></g>
<g><path style="opacity:1" fill="#48bbd6" d="M 129.5,329.5 C 129.5,344.833 129.5,360.167 129.5,375.5C 126.807,376.847 124.14,378.18 121.5,379.5C 112.616,383.858 104.116,388.858 96,394.5C 95.6012,394.272 95.4346,393.938 95.5,393.5C 97.5993,387.337 98.9326,381.004 99.5,374.5C 100.224,372.782 100.891,370.948 101.5,369C 109.333,364.584 117,359.918 124.5,355C 116.291,358.191 108.458,362.358 101,367.5C 100.333,360.833 100.333,354.167 101,347.5C 110.384,341.276 119.884,335.276 129.5,329.5 Z"/></g>
<g><path style="opacity:0.909" fill="#44b4d8" d="M 454.5,329.5 C 454.5,331.167 454.5,332.833 454.5,334.5C 439.697,342.736 425.03,351.236 410.5,360C 409.241,360.982 407.908,361.315 406.5,361C 422.382,350.277 438.382,339.777 454.5,329.5 Z"/></g>
<g><path style="opacity:1" fill="#2077cf" d="M 334.5,339.5 C 335.5,339.833 336.167,340.5 336.5,341.5C 328.483,345.862 320.483,350.195 312.5,354.5C 319.449,349.018 326.783,344.018 334.5,339.5 Z"/></g>
<g><path style="opacity:1" fill="#2b7cc5" d="M 248.5,338.5 C 249.5,338.833 250.167,339.5 250.5,340.5C 244.993,343.92 239.326,346.754 233.5,349C 238.529,345.49 243.529,341.99 248.5,338.5 Z"/></g>
<g><path style="opacity:0.959" fill="#29a0b4" d="M 85.5,317.5 C 86.5,317.5 87.5,317.5 88.5,317.5C 88.0949,340.196 87.2615,362.863 86,385.5C 80.8906,402.117 69.7239,411.117 52.5,412.5C 52.1667,411.167 51.8333,411.167 51.5,412.5C 45.7137,414.014 40.7137,412.681 36.5,408.5C 41.1321,405.857 45.4654,402.857 49.5,399.5C 44.3682,401.9 39.3682,404.566 34.5,407.5C 30.6367,406.306 27.6367,403.973 25.5,400.5C 35.6879,394.91 45.3545,388.576 54.5,381.5C 44.1675,386.664 34.1675,392.331 24.5,398.5C 20.9932,396.634 18.9932,393.634 18.5,389.5C 34.7113,380.235 50.378,370.235 65.5,359.5C 49.5171,368.472 33.5171,377.472 17.5,386.5C 15.5902,383.548 14.5902,380.214 14.5,376.5C 25.7902,369.861 36.7902,362.861 47.5,355.5C 36.3399,361.246 25.3399,367.246 14.5,373.5C 14.5,369.5 14.5,365.5 14.5,361.5C 38.6777,347.582 62.3444,332.915 85.5,317.5 Z M 52.5,352.5 C 51.3406,354.25 49.674,355.25 47.5,355.5C 48.6594,353.75 50.326,352.75 52.5,352.5 Z M 62.5,376.5 C 62.0269,377.906 61.0269,378.573 59.5,378.5C 59.9731,377.094 60.9731,376.427 62.5,376.5 Z M 59.5,378.5 C 58.3406,380.25 56.674,381.25 54.5,381.5C 55.6594,379.75 57.326,378.75 59.5,378.5 Z M 52.5,397.5 C 52.0269,398.906 51.0269,399.573 49.5,399.5C 49.9731,398.094 50.9731,397.427 52.5,397.5 Z"/></g>
<g><path style="opacity:1" fill="#2276d0" d="M 262.5,353.5 C 264.833,353.833 266.167,355.167 266.5,357.5C 253.03,365.07 239.696,372.903 226.5,381C 225.241,381.982 223.908,382.315 222.5,382C 236.014,372.637 249.347,363.137 262.5,353.5 Z"/></g>
<g><path style="opacity:1" fill="#2276d0" d="M 350.5,355.5 C 351.833,356.167 352.833,357.167 353.5,358.5C 343.3,364.433 332.967,370.1 322.5,375.5C 331.443,368.355 340.777,361.688 350.5,355.5 Z"/></g>
<g><path style="opacity:1" fill="#4d96a0" d="M 312.5,354.5 C 310.397,357.125 307.73,358.625 304.5,359C 306.817,356.843 309.484,355.343 312.5,354.5 Z"/></g>
<g><path style="opacity:1" fill="#46b5d6" d="M 176.5,359.5 C 173.194,362.14 170.194,365.14 167.5,368.5C 158.922,373.075 150.589,378.075 142.5,383.5C 142.5,381.833 142.5,380.167 142.5,378.5C 153.538,371.648 164.871,365.314 176.5,359.5 Z"/></g>
<g><path style="opacity:1" fill="#41b1d8" d="M 454.5,357.5 C 454.5,358.167 454.5,358.833 454.5,359.5C 448.779,363.434 442.779,366.6 436.5,369C 442.387,364.896 448.387,361.062 454.5,357.5 Z"/></g>
<g><path style="opacity:1" fill="#0e71da" d="M 167.5,368.5 C 159.228,376.27 151.062,384.27 143,392.5C 142.502,389.518 142.335,386.518 142.5,383.5C 150.589,378.075 158.922,373.075 167.5,368.5 Z"/></g>
<g><path style="opacity:1" fill="#2377cd" d="M 366.5,371.5 C 367.833,372.167 368.833,373.167 369.5,374.5C 361.533,378.981 353.533,383.148 345.5,387C 352.683,381.97 359.683,376.803 366.5,371.5 Z"/></g>
<g><path style="opacity:1" fill="#5aa190" d="M 322.5,375.5 C 320.397,378.125 317.73,379.625 314.5,380C 316.817,377.843 319.484,376.343 322.5,375.5 Z"/></g>
<g><path style="opacity:0.956" fill="#2c9caf" d="M 121.5,379.5 C 121.657,380.873 121.49,382.207 121,383.5C 114.147,388.83 107.647,394.497 101.5,400.5C 100.508,400.328 99.8417,400.662 99.5,401.5C 98.8333,401.5 98.5,401.833 98.5,402.5C 93.6511,405.838 88.6511,409.004 83.5,412C 88.8229,412.499 94.1563,412.666 99.5,412.5C 92.6791,413.655 85.6791,413.821 78.5,413C 85.8393,407.836 91.506,401.336 95.5,393.5C 95.4346,393.938 95.6012,394.272 96,394.5C 104.116,388.858 112.616,383.858 121.5,379.5 Z"/></g>
<g><path style="opacity:1" fill="#2376d0" d="M 376.5,381.5 C 378.167,382.5 379.5,383.833 380.5,385.5C 370.372,391.892 360.038,397.725 349.5,403C 358.53,395.825 367.53,388.658 376.5,381.5 Z"/></g>
<g><path style="opacity:1" fill="#44b3d6" d="M 454.5,382.5 C 454.5,384.167 454.5,385.833 454.5,387.5C 447.173,391.661 439.839,395.494 432.5,399C 439.428,392.899 446.761,387.399 454.5,382.5 Z"/></g>
<g><path style="opacity:0.946" fill="#4abcd8" d="M 129.5,385.5 C 129.5,389.167 129.5,392.833 129.5,396.5C 119.904,401.441 110.571,406.775 101.5,412.5C 100.833,412.5 100.167,412.5 99.5,412.5C 94.1563,412.666 88.8229,412.499 83.5,412C 88.6511,409.004 93.6511,405.838 98.5,402.5C 99.1667,402.5 99.5,402.167 99.5,401.5C 100.492,401.672 101.158,401.338 101.5,400.5C 110.833,395.5 120.167,390.5 129.5,385.5 Z"/></g>
<g><path style="opacity:1" fill="#1973d1" d="M 395.5,400.5 C 396.833,401.167 397.833,402.167 398.5,403.5C 382.949,413.57 381.949,412.57 395.5,400.5 Z"/></g>
<g><path style="opacity:0.935" fill="#49bed9" d="M 129.5,403.5 C 129.5,406.5 129.5,409.5 129.5,412.5C 124.5,412.5 119.5,412.5 114.5,412.5C 119.233,409.11 124.233,406.11 129.5,403.5 Z"/></g>
<g><path style="opacity:1" fill="#4190a9" d="M 209.5,411.5 C 210.002,409.915 211.002,409.415 212.5,410C 211.756,411.039 210.756,411.539 209.5,411.5 Z"/></g>
<g><path style="opacity:1" fill="#1a72d2" d="M 303.5,430.5 C 298.968,430.818 294.634,430.485 290.5,429.5C 303.999,421.423 317.666,413.923 331.5,407C 321.911,414.614 312.577,422.447 303.5,430.5 Z"/></g>
<g><path style="opacity:1" fill="#2274cc" d="M 406.5,411.5 C 408.167,412.5 409.5,413.833 410.5,415.5C 407.19,417.377 403.857,418.877 400.5,420C 402.72,417.287 404.72,414.454 406.5,411.5 Z"/></g>
<g><path style="opacity:0.971" fill="#2179d4" d="M 142.5,428.5 C 142.298,426.05 142.631,423.717 143.5,421.5C 154.942,415.276 166.275,408.776 177.5,402C 178.759,401.018 180.092,400.685 181.5,401C 168.343,409.997 155.343,419.164 142.5,428.5 Z"/></g>
<g><path style="opacity:1" fill="#2175ce" d="M 228.5,430.5 C 225.5,430.5 222.5,430.5 219.5,430.5C 232.939,422.274 246.606,414.274 260.5,406.5C 261.696,406.846 261.696,407.346 260.5,408C 249.592,415.276 238.925,422.776 228.5,430.5 Z"/></g>
<g><path style="opacity:1" fill="#45b2cf" d="M 454.5,414.5 C 454.5,415.833 454.5,417.167 454.5,418.5C 452.322,419.929 449.989,420.763 447.5,421C 449.703,418.628 452.037,416.461 454.5,414.5 Z"/></g>
<g><path style="opacity:1" fill="#2275cc" d="M 272.5,430.5 C 269.833,430.5 267.167,430.5 264.5,430.5C 274.437,424.526 284.437,418.526 294.5,412.5C 294.833,412.667 295.167,412.833 295.5,413C 287.649,418.697 279.982,424.53 272.5,430.5 Z"/></g>
<g><path style="opacity:1" fill="#2074cd" d="M 352.5,429.5 C 348.936,430.423 345.269,430.756 341.5,430.5C 348.936,425.608 356.603,420.941 364.5,416.5C 361.508,421.185 357.508,425.518 352.5,429.5 Z"/></g>
<g><path style="opacity:0.927" fill="#2779d0" d="M 383.5,430.5 C 380.941,430.802 378.607,430.468 376.5,429.5C 378.833,427.5 381.167,425.5 383.5,423.5C 384.167,423.5 384.5,423.167 384.5,422.5C 384.833,422.5 385.167,422.5 385.5,422.5C 386.167,422.5 386.5,422.167 386.5,421.5C 387.167,421.5 387.5,421.167 387.5,420.5C 388.665,418.584 390.332,417.751 392.5,418C 389.123,421.931 386.123,426.098 383.5,430.5 Z"/></g>
<g><path style="opacity:1" fill="#2576cb" d="M 209.5,411.5 C 200.675,418.079 191.675,424.413 182.5,430.5C 180.5,430.5 178.5,430.5 176.5,430.5C 187.237,423.775 198.237,417.442 209.5,411.5 Z"/></g>
<g><path style="opacity:1" fill="#4b5569" d="M 221.5,439.5 C 237.5,438.167 253.5,438.167 269.5,439.5C 269.167,439.5 268.833,439.5 268.5,439.5C 262.491,439.334 256.491,439.501 250.5,440C 248.141,441.358 245.807,442.358 243.5,443C 244.551,441.615 245.884,440.615 247.5,440C 241.509,439.501 235.509,439.334 229.5,439.5C 226.833,439.5 224.167,439.5 221.5,439.5 Z"/></g>
<g><path style="opacity:0.974" fill="#cbcfd9" d="M 184.5,439.5 C 182.167,442.167 179.833,444.833 177.5,447.5C 173.833,450.5 170.5,453.833 167.5,457.5C 178.171,452.503 188.171,446.503 197.5,439.5C 204.5,439.5 211.5,439.5 218.5,439.5C 218.5,439.833 218.5,440.167 218.5,440.5C 212.091,445.034 206.091,450.034 200.5,455.5C 206.795,452.686 212.795,449.353 218.5,445.5C 222.655,444.258 226.322,442.258 229.5,439.5C 235.509,439.334 241.509,439.501 247.5,440C 245.884,440.615 244.551,441.615 243.5,443C 245.807,442.358 248.141,441.358 250.5,440C 256.491,439.501 262.491,439.334 268.5,439.5C 268.833,440.833 269.167,440.833 269.5,439.5C 282.171,439.333 294.838,439.5 307.5,440C 306.944,440.383 306.611,440.883 306.5,441.5C 306.167,442.167 305.833,442.833 305.5,443.5C 307.674,443.25 309.341,442.25 310.5,440.5C 311.492,440.672 312.158,440.338 312.5,439.5C 319.022,439.177 325.355,439.51 331.5,440.5C 325.833,445.167 320.167,449.833 314.5,454.5C 320.964,451.434 327.298,448.101 333.5,444.5C 336.76,443.226 339.76,441.56 342.5,439.5C 348.833,439.5 355.167,439.5 361.5,439.5C 352.167,447.167 342.833,454.833 333.5,462.5C 343.3,457.433 352.967,452.099 362.5,446.5C 366.836,444.668 370.836,442.335 374.5,439.5C 380.5,439.5 386.5,439.5 392.5,439.5C 390.684,441.137 388.684,442.637 386.5,444C 385.304,444.654 385.304,445.154 386.5,445.5C 390.135,443.835 393.469,441.835 396.5,439.5C 402.833,439.5 409.167,439.5 415.5,439.5C 415.5,439.833 415.5,440.167 415.5,440.5C 409.285,444.109 403.618,448.442 398.5,453.5C 404.298,450.767 409.965,447.767 415.5,444.5C 418.76,443.226 421.76,441.56 424.5,439.5C 430.5,439.5 436.5,439.5 442.5,439.5C 440.684,441.137 438.684,442.637 436.5,444C 435.748,444.671 435.414,445.504 435.5,446.5C 432.19,448.482 429.19,450.815 426.5,453.5C 430.335,451.75 434.001,449.75 437.5,447.5C 442.984,445.593 447.984,442.927 452.5,439.5C 454.842,443.116 455.175,447.116 453.5,451.5C 452.5,451.833 451.833,452.5 451.5,453.5C 452.167,453.5 452.833,453.5 453.5,453.5C 454.8,458.4 454.8,463.4 453.5,468.5C 450.5,470.833 447.833,473.5 445.5,476.5C 448.45,475.692 451.117,474.358 453.5,472.5C 455.296,480.319 454.463,487.986 451,495.5C 449.745,496.211 448.579,497.044 447.5,498C 441.843,498.499 436.176,498.666 430.5,498.5C 430.167,497.167 429.833,497.167 429.5,498.5C 422.5,498.5 415.5,498.5 408.5,498.5C 414.806,492.86 420.806,486.86 426.5,480.5C 415.667,485.746 405.334,491.746 395.5,498.5C 388.833,498.5 382.167,498.5 375.5,498.5C 379.5,495.167 383.5,491.833 387.5,488.5C 381.332,491.08 375.665,494.414 370.5,498.5C 363.833,498.5 357.167,498.5 350.5,498.5C 356.5,493.5 362.5,488.5 368.5,483.5C 359.499,487.998 350.832,492.998 342.5,498.5C 335.833,498.5 329.167,498.5 322.5,498.5C 328.5,493.5 334.5,488.5 340.5,483.5C 331.499,487.998 322.832,492.998 314.5,498.5C 307.833,498.5 301.167,498.5 294.5,498.5C 293.833,497.167 293.167,497.167 292.5,498.5C 285.833,498.5 279.167,498.5 272.5,498.5C 281.833,490.833 291.167,483.167 300.5,475.5C 286.646,482.375 273.312,490.042 260.5,498.5C 253.833,498.5 247.167,498.5 240.5,498.5C 246.833,493.167 253.167,487.833 259.5,482.5C 249.833,487.331 240.5,492.664 231.5,498.5C 224.833,498.5 218.167,498.5 211.5,498.5C 214.02,496.737 216.353,494.737 218.5,492.5C 214.827,494 211.494,496 208.5,498.5C 195.5,498.5 182.5,498.5 169.5,498.5C 168.833,497.167 168.167,497.167 167.5,498.5C 162.156,498.666 156.823,498.499 151.5,498C 150.944,497.617 150.611,497.117 150.5,496.5C 146.323,494.984 143.989,491.984 143.5,487.5C 148.873,483.156 154.206,478.823 159.5,474.5C 153.835,476.997 148.502,479.997 143.5,483.5C 142.513,478.695 142.179,473.695 142.5,468.5C 145.833,465.833 148.833,462.833 151.5,459.5C 148.5,460.833 145.5,462.167 142.5,463.5C 142.5,455.5 142.5,447.5 142.5,439.5C 148.842,439.334 155.175,439.5 161.5,440C 159.993,440.837 159.493,442.004 160,443.5C 161.833,442.333 163.667,441.167 165.5,440C 171.825,439.5 178.158,439.334 184.5,439.5 Z M 361.5,439.5 C 361.833,439.5 362.167,439.5 362.5,439.5C 361.167,441.833 361.167,444.167 362.5,446.5C 352.967,452.099 343.3,457.433 333.5,462.5C 342.833,454.833 352.167,447.167 361.5,439.5 Z M 195.5,439.5 C 196.167,439.5 196.833,439.5 197.5,439.5C 188.171,446.503 178.171,452.503 167.5,457.5C 170.5,453.833 173.833,450.5 177.5,447.5C 184.212,446.478 190.212,443.812 195.5,439.5 Z M 218.5,440.5 C 218.5,442.167 218.5,443.833 218.5,445.5C 212.795,449.353 206.795,452.686 200.5,455.5C 206.091,450.034 212.091,445.034 218.5,440.5 Z M 310.5,440.5 C 309.341,442.25 307.674,443.25 305.5,443.5C 305.833,442.833 306.167,442.167 306.5,441.5C 307.833,441.167 309.167,440.833 310.5,440.5 Z M 331.5,440.5 C 332.167,440.5 332.833,440.5 333.5,440.5C 333.5,441.833 333.5,443.167 333.5,444.5C 327.298,448.101 320.964,451.434 314.5,454.5C 320.167,449.833 325.833,445.167 331.5,440.5 Z M 415.5,440.5 C 415.5,441.833 415.5,443.167 415.5,444.5C 409.965,447.767 404.298,450.767 398.5,453.5C 403.618,448.442 409.285,444.109 415.5,440.5 Z M 435.5,446.5 C 436.167,446.833 436.833,447.167 437.5,447.5C 434.001,449.75 430.335,451.75 426.5,453.5C 429.19,450.815 432.19,448.482 435.5,446.5 Z M 398.5,453.5 C 398.027,454.906 397.027,455.573 395.5,455.5C 395.973,454.094 396.973,453.427 398.5,453.5 Z M 314.5,454.5 C 314.027,455.906 313.027,456.573 311.5,456.5C 311.973,455.094 312.973,454.427 314.5,454.5 Z M 300.5,475.5 C 291.167,483.167 281.833,490.833 272.5,498.5C 268.5,498.5 264.5,498.5 260.5,498.5C 273.312,490.042 286.646,482.375 300.5,475.5 Z M 426.5,480.5 C 420.806,486.86 414.806,492.86 408.5,498.5C 404.167,498.5 399.833,498.5 395.5,498.5C 405.334,491.746 415.667,485.746 426.5,480.5 Z M 343.5,481.5 C 343.027,482.906 342.027,483.573 340.5,483.5C 340.973,482.094 341.973,481.427 343.5,481.5 Z M 259.5,482.5 C 253.167,487.833 246.833,493.167 240.5,498.5C 237.5,498.5 234.5,498.5 231.5,498.5C 240.5,492.664 249.833,487.331 259.5,482.5 Z M 340.5,483.5 C 334.5,488.5 328.5,493.5 322.5,498.5C 319.833,498.5 317.167,498.5 314.5,498.5C 322.832,492.998 331.499,487.998 340.5,483.5 Z M 368.5,483.5 C 362.5,488.5 356.5,493.5 350.5,498.5C 347.833,498.5 345.167,498.5 342.5,498.5C 350.832,492.998 359.499,487.998 368.5,483.5 Z M 387.5,488.5 C 383.5,491.833 379.5,495.167 375.5,498.5C 373.833,498.5 372.167,498.5 370.5,498.5C 375.665,494.414 381.332,491.08 387.5,488.5 Z M 218.5,492.5 C 216.353,494.737 214.02,496.737 211.5,498.5C 210.5,498.5 209.5,498.5 208.5,498.5C 211.494,496 214.827,494 218.5,492.5 Z"/></g>
<g><path style="opacity:0.957" fill="#1972db" d="M 362.5,439.5 C 366.5,439.5 370.5,439.5 374.5,439.5C 370.836,442.335 366.836,444.668 362.5,446.5C 361.167,444.167 361.167,441.833 362.5,439.5 Z"/></g>
<g><path style="opacity:0.913" fill="#2074db" d="M 334.5,439.5 C 337.167,439.5 339.833,439.5 342.5,439.5C 339.76,441.56 336.76,443.226 333.5,444.5C 333.5,443.167 333.5,441.833 333.5,440.5C 334.167,440.5 334.5,440.167 334.5,439.5 Z"/></g>
<g><path style="opacity:0.963" fill="#1572db" d="M 219.5,439.5 C 220.167,439.5 220.833,439.5 221.5,439.5C 224.167,439.5 226.833,439.5 229.5,439.5C 226.322,442.258 222.655,444.258 218.5,445.5C 218.5,443.833 218.5,442.167 218.5,440.5C 219.167,440.5 219.5,440.167 219.5,439.5 Z"/></g>
<g><path style="opacity:0.938" fill="#0d6edd" d="M 184.5,439.5 C 188.167,439.5 191.833,439.5 195.5,439.5C 190.212,443.812 184.212,446.478 177.5,447.5C 179.833,444.833 182.167,442.167 184.5,439.5 Z"/></g>
<g><path style="opacity:0.967" fill="#1a73db" d="M 416.5,439.5 C 419.167,439.5 421.833,439.5 424.5,439.5C 421.76,441.56 418.76,443.226 415.5,444.5C 415.5,443.167 415.5,441.833 415.5,440.5C 416.167,440.5 416.5,440.167 416.5,439.5 Z"/></g>
<g><path style="opacity:0.981" fill="#1c74db" d="M 442.5,439.5 C 445.833,439.5 449.167,439.5 452.5,439.5C 447.984,442.927 442.984,445.593 437.5,447.5C 436.833,447.167 436.167,446.833 435.5,446.5C 435.414,445.504 435.748,444.671 436.5,444C 438.684,442.637 440.684,441.137 442.5,439.5 Z"/></g>
<g><path style="opacity:1" fill="#2a7adb" d="M 392.5,439.5 C 393.833,439.5 395.167,439.5 396.5,439.5C 393.469,441.835 390.135,443.835 386.5,445.5C 385.304,445.154 385.304,444.654 386.5,444C 388.684,442.637 390.684,441.137 392.5,439.5 Z"/></g>
<g><path style="opacity:1" fill="#2c2c2c" d="M 177.5,466.5 C 202.509,466.167 227.509,466.5 252.5,467.5C 251.221,469.146 249.555,470.313 247.5,471C 222.493,471.833 197.493,471.666 172.5,470.5C 174.015,468.918 175.681,467.584 177.5,466.5 Z"/></g>
<g><path style="opacity:1" fill="#2a2a2a" d="M 329.5,465.5 C 346.338,466.167 363.338,466.833 380.5,467.5C 378.997,469.422 376.997,470.588 374.5,471C 341.495,471.833 308.495,471.667 275.5,470.5C 276.364,468.803 277.697,467.637 279.5,467C 296.21,466.805 312.877,466.305 329.5,465.5 Z"/></g>
<g><path style="opacity:1" fill="#2d2d2e" d="M 408.5,465.5 C 413.179,465.334 417.845,465.501 422.5,466C 423.276,468.929 421.943,470.596 418.5,471C 413.511,471.499 408.511,471.666 403.5,471.5C 403.351,470.448 403.517,469.448 404,468.5C 405.652,467.601 407.152,466.601 408.5,465.5 Z"/></g>
</svg>
