<?xml version="1.0" encoding="UTF-8"?>
<!DOCTYPE svg PUBLIC "-//W3C//DTD SVG 1.1//EN" "http://www.w3.org/Graphics/SVG/1.1/DTD/svg11.dtd">
<svg xmlns="http://www.w3.org/2000/svg" version="1.1" width="512px" height="512px" style="shape-rendering:geometricPrecision; text-rendering:geometricPrecision; image-rendering:optimizeQuality; fill-rule:evenodd; clip-rule:evenodd" xmlns:xlink="http://www.w3.org/1999/xlink">
<g><path style="opacity:0.98" fill="#000000" d="M 208.5,-0.5 C 294.833,-0.5 381.167,-0.5 467.5,-0.5C 490.5,5.83333 505.167,20.5 511.5,43.5C 511.5,184.833 511.5,326.167 511.5,467.5C 505.167,490.5 490.5,505.167 467.5,511.5C 381.167,511.5 294.833,511.5 208.5,511.5C 185.725,506.228 171.225,492.228 165,469.5C 163.367,427.199 163.033,384.866 164,342.5C 167.967,331.429 175.8,326.929 187.5,329C 193.87,330.436 198.037,334.269 200,340.5C 201.304,380.795 201.971,421.128 202,461.5C 203.743,466.91 207.243,470.744 212.5,473C 295.11,474.658 377.777,474.992 460.5,474C 467.667,472.167 472.167,467.667 474,460.5C 474.667,323.833 474.667,187.167 474,50.5C 472.167,43.3333 467.667,38.8333 460.5,37C 377.777,36.0084 295.11,36.3417 212.5,38C 207.243,40.2563 203.743,44.0896 202,49.5C 201.971,89.8716 201.304,130.205 200,170.5C 193.134,183.006 183.301,185.84 170.5,179C 167.193,176.222 165.026,172.722 164,168.5C 163.033,126.134 163.367,83.8007 165,41.5C 171.225,18.7724 185.725,4.77242 208.5,-0.5 Z"/></g>
<g><path style="opacity:0.962" fill="#000000" d="M -0.5,261.5 C -0.5,257.5 -0.5,253.5 -0.5,249.5C 0.374833,247.432 1.5415,245.432 3,243.5C 34.5,212 66,180.5 97.5,149C 110.587,142.363 120.421,145.53 127,158.5C 128.713,166.067 127.047,172.734 122,178.5C 102.833,197.667 83.6667,216.833 64.5,236C 165.833,236.333 267.167,236.667 368.5,237C 380.77,240.631 385.603,248.798 383,261.5C 380.648,268.517 375.815,272.684 368.5,274C 267.167,274.333 165.833,274.667 64.5,275C 84,294.5 103.5,314 123,333.5C 129.828,341.951 130.161,350.617 124,359.5C 115.765,366.478 106.931,367.311 97.5,362C 66,330.5 34.5,299 3,267.5C 2.05898,265.273 0.892318,263.273 -0.5,261.5 Z"/></g>
</svg>
